<svg xmlns="http://www.w3.org/2000/svg" xmlns:xlink="http://www.w3.org/1999/xlink" width="18" zoomAndPan="magnify" viewBox="0 0 30 30.000001" height="18" preserveAspectRatio="xMidYMid meet" version="1.0"><defs><clipPath id="id1"><path d="M 8 6.414062 L 28 6.414062 L 28 22.382812 L 8 22.382812 Z M 8 6.414062 " clip-rule="nonzero"/></clipPath><clipPath id="id2"><path d="M 2 6.414062 L 22 6.414062 L 22 22.382812 L 2 22.382812 Z M 2 6.414062 " clip-rule="nonzero"/></clipPath><clipPath id="id3"><path d="M 1.882812 6.414062 L 28 6.414062 L 28 22.382812 L 1.882812 22.382812 Z M 1.882812 6.414062 " clip-rule="nonzero"/></clipPath></defs><g clip-path="url(#id1)"><path fill="#1848a0" d="M 14.269531 22.0625 C 13.945312 22.0625 13.632812 21.929688 13.410156 21.695312 L 8.398438 16.441406 C 7.949219 15.972656 7.972656 15.234375 8.445312 14.792969 C 8.917969 14.347656 9.664062 14.371094 10.113281 14.839844 L 14.261719 19.1875 L 25.496094 7.253906 C 25.941406 6.78125 26.6875 6.757812 27.164062 7.195312 C 27.640625 7.636719 27.667969 8.375 27.222656 8.847656 L 15.132812 21.691406 C 14.910156 21.925781 14.597656 22.0625 14.273438 22.0625 C 14.269531 22.0625 14.269531 22.0625 14.269531 22.0625 Z M 14.269531 22.0625 " fill-opacity="1" fill-rule="nonzero"/></g><g clip-path="url(#id2)"><path stroke-linecap="round" transform="matrix(0.29491, 0, 0, 0.291916, 0.112673, 0.460753)" fill="none" stroke-linejoin="round" d="M 10.995881 52.000904 L 28.003185 69.998939 L 68.998204 26.000768 " stroke="#a1d3a2" stroke-width="8" stroke-opacity="1" stroke-miterlimit="10"/></g><path fill="#01081d" d="M 24.226562 10.679688 C 24.191406 10.679688 24.15625 10.664062 24.125 10.640625 C 24.066406 10.582031 24.0625 10.492188 24.117188 10.433594 L 24.925781 9.574219 C 24.980469 9.515625 25.074219 9.511719 25.132812 9.570312 C 25.191406 9.625 25.195312 9.714844 25.140625 9.773438 L 24.335938 10.632812 C 24.304688 10.660156 24.265625 10.679688 24.226562 10.679688 Z M 25.621094 9.195312 C 25.585938 9.195312 25.550781 9.183594 25.523438 9.15625 C 25.460938 9.101562 25.460938 9.007812 25.515625 8.949219 L 25.765625 8.679688 C 25.824219 8.621094 25.917969 8.617188 25.976562 8.671875 C 26.035156 8.730469 26.039062 8.820312 25.984375 8.878906 L 25.730469 9.148438 C 25.703125 9.179688 25.660156 9.195312 25.621094 9.195312 Z M 23.597656 10.984375 L 14.269531 20.894531 L 12.753906 19.304688 C 12.699219 19.246094 12.605469 19.242188 12.542969 19.300781 C 12.484375 19.355469 12.484375 19.445312 12.539062 19.503906 L 14.050781 21.09375 C 14.109375 21.152344 14.1875 21.1875 14.269531 21.1875 C 14.347656 21.1875 14.425781 21.15625 14.484375 21.09375 L 23.8125 11.183594 C 23.871094 11.125 23.867188 11.035156 23.804688 10.976562 C 23.746094 10.921875 23.652344 10.925781 23.597656 10.984375 Z M 23.597656 10.984375 " fill-opacity="1" fill-rule="nonzero"/><g clip-path="url(#id3)"><path fill="#01081d" d="M 27.363281 6.984375 C 26.769531 6.433594 25.835938 6.46875 25.28125 7.054688 L 14.261719 18.761719 L 13.320312 17.777344 L 21.539062 9.046875 C 22.09375 8.457031 22.0625 7.53125 21.464844 6.984375 C 20.871094 6.433594 19.9375 6.46875 19.382812 7.054688 L 11.292969 15.648438 L 10.328125 14.636719 C 9.769531 14.054688 8.832031 14.027344 8.242188 14.578125 C 7.957031 14.847656 7.792969 15.207031 7.78125 15.597656 C 7.769531 15.988281 7.914062 16.359375 8.183594 16.640625 L 9.277344 17.789062 L 8.363281 18.761719 L 4.429688 14.636719 C 3.871094 14.054688 2.9375 14.027344 2.34375 14.578125 C 2.058594 14.847656 1.894531 15.207031 1.882812 15.597656 C 1.871094 15.988281 2.015625 16.359375 2.285156 16.640625 L 7.296875 21.898438 C 7.574219 22.1875 7.964844 22.355469 8.371094 22.355469 C 8.371094 22.355469 8.375 22.355469 8.375 22.355469 C 8.78125 22.351562 9.171875 22.183594 9.449219 21.890625 L 11.308594 19.917969 L 13.195312 21.898438 C 13.472656 22.1875 13.863281 22.355469 14.273438 22.355469 C 14.679688 22.351562 15.070312 22.183594 15.347656 21.890625 L 27.4375 9.046875 C 27.992188 8.457031 27.960938 7.53125 27.363281 6.984375 Z M 8.613281 16.242188 C 8.449219 16.070312 8.363281 15.847656 8.371094 15.617188 C 8.378906 15.382812 8.476562 15.164062 8.648438 15.003906 C 9.003906 14.671875 9.5625 14.6875 9.898438 15.039062 L 10.890625 16.078125 L 9.679688 17.363281 Z M 9.015625 21.492188 C 8.851562 21.667969 8.617188 21.769531 8.375 21.769531 L 8.371094 21.769531 C 8.128906 21.769531 7.894531 21.671875 7.726562 21.496094 L 2.714844 16.242188 C 2.550781 16.070312 2.464844 15.847656 2.472656 15.617188 C 2.480469 15.382812 2.578125 15.164062 2.75 15.003906 C 2.921875 14.84375 3.136719 14.765625 3.355469 14.765625 C 3.589844 14.765625 3.828125 14.855469 4 15.039062 L 8.148438 19.386719 C 8.207031 19.445312 8.28125 19.480469 8.363281 19.480469 C 8.363281 19.480469 8.363281 19.480469 8.367188 19.480469 C 8.445312 19.480469 8.523438 19.445312 8.582031 19.386719 L 19.8125 7.453125 C 20.148438 7.101562 20.707031 7.082031 21.066406 7.410156 C 21.421875 7.738281 21.441406 8.292969 21.109375 8.648438 Z M 27.007812 8.648438 L 14.914062 21.492188 C 14.75 21.667969 14.515625 21.769531 14.269531 21.769531 C 14.027344 21.769531 13.792969 21.671875 13.625 21.496094 L 11.710938 19.488281 L 12.917969 18.203125 L 14.046875 19.390625 C 14.105469 19.445312 14.179688 19.480469 14.261719 19.480469 C 14.34375 19.480469 14.421875 19.445312 14.480469 19.386719 L 25.710938 7.453125 C 26.046875 7.101562 26.605469 7.082031 26.964844 7.410156 C 27.320312 7.738281 27.339844 8.292969 27.007812 8.648438 Z M 27.007812 8.648438 " fill-opacity="1" fill-rule="nonzero"/></g><path fill="#01081d" d="M 9.441406 19.757812 L 9.152344 20.066406 C 9.097656 20.125 9.101562 20.21875 9.160156 20.273438 C 9.1875 20.296875 9.222656 20.3125 9.261719 20.3125 C 9.300781 20.3125 9.339844 20.296875 9.367188 20.265625 L 9.65625 19.957031 C 9.714844 19.898438 9.710938 19.804688 9.648438 19.75 C 9.589844 19.695312 9.496094 19.699219 9.441406 19.757812 Z M 16.816406 11.925781 L 9.976562 19.191406 C 9.921875 19.25 9.921875 19.339844 9.984375 19.394531 C 10.011719 19.421875 10.046875 19.433594 10.085938 19.433594 C 10.125 19.433594 10.164062 19.417969 10.191406 19.390625 L 17.03125 12.125 C 17.085938 12.066406 17.082031 11.972656 17.023438 11.917969 C 16.964844 11.863281 16.871094 11.867188 16.816406 11.925781 Z M 16.816406 11.925781 " fill-opacity="1" fill-rule="nonzero"/></svg>
