<svg xmlns="http://www.w3.org/2000/svg" xmlns:xlink="http://www.w3.org/1999/xlink" width="40" zoomAndPan="magnify" viewBox="0 0 30 30.000001" height="40" preserveAspectRatio="xMidYMid meet" version="1.0"><defs><clipPath id="id1"><path d="M 3.386719 2.902344 L 26.613281 2.902344 L 26.613281 26.128906 L 3.386719 26.128906 Z M 3.386719 2.902344 " clip-rule="nonzero"/></clipPath><clipPath id="id2"><path d="M 6 16 L 24 16 L 24 26.128906 L 6 26.128906 Z M 6 16 " clip-rule="nonzero"/></clipPath></defs><g clip-path="url(#id1)"><path fill="#b3b3b3" d="M 26.613281 14.515625 C 26.613281 17.488281 25.5 20.199219 23.664062 22.25 C 21.535156 24.632812 18.445312 26.128906 15 26.128906 C 11.558594 26.128906 8.464844 24.632812 6.339844 22.25 C 4.503906 20.199219 3.386719 17.488281 3.386719 14.515625 C 3.386719 8.101562 8.585938 2.902344 15 2.902344 C 21.414062 2.902344 26.613281 8.101562 26.613281 14.515625 " fill-opacity="1" fill-rule="nonzero"/></g><path fill="#f2f2f2" d="M 15 16.65625 C 17.105469 16.65625 19.023438 14.273438 19.023438 11.660156 C 19.023438 9.1875 18.542969 6.746094 15 6.746094 C 11.457031 6.746094 10.976562 9.1875 10.976562 11.660156 C 10.976562 14.273438 12.894531 16.65625 15 16.65625 " fill-opacity="1" fill-rule="nonzero"/><g clip-path="url(#id2)"><path fill="#f2f2f2" d="M 23.664062 22.25 C 21.535156 24.632812 18.445312 26.128906 15 26.128906 C 11.558594 26.128906 8.464844 24.632812 6.339844 22.25 C 6.300781 20.816406 7.257812 17.492188 12.128906 16.46875 C 12.960938 17.320312 13.988281 17.800781 15 17.800781 C 16.015625 17.800781 17.039062 17.320312 17.871094 16.46875 C 22.746094 17.492188 23.699219 20.816406 23.664062 22.25 " fill-opacity="1" fill-rule="nonzero"/></g></svg>