<svg xmlns="http://www.w3.org/2000/svg" xmlns:xlink="http://www.w3.org/1999/xlink" width="40" zoomAndPan="magnify" viewBox="0 0 30 30.000001" height="40" preserveAspectRatio="xMidYMid meet" version="1.0"><defs><clipPath id="id1"><path d="M 5 4.492188 L 25.3125 4.492188 L 25.3125 24.816406 L 5 24.816406 Z M 5 4.492188 " clip-rule="nonzero"/></clipPath></defs><g clip-path="url(#id1)"><path fill="#5ce1e6" d="M 25.160156 14.644531 C 25.160156 15.300781 25.09375 15.949219 24.96875 16.589844 C 24.839844 17.230469 24.652344 17.855469 24.398438 18.457031 C 24.148438 19.0625 23.839844 19.636719 23.476562 20.179688 C 23.113281 20.722656 22.699219 21.226562 22.234375 21.691406 C 21.773438 22.152344 21.269531 22.566406 20.722656 22.929688 C 20.179688 23.292969 19.601562 23.597656 18.996094 23.851562 C 18.390625 24.101562 17.769531 24.289062 17.125 24.417969 C 16.480469 24.542969 15.832031 24.609375 15.175781 24.609375 C 14.523438 24.609375 13.871094 24.542969 13.230469 24.417969 C 12.585938 24.289062 11.964844 24.101562 11.355469 23.851562 C 10.75 23.597656 10.175781 23.292969 9.632812 22.929688 C 9.085938 22.566406 8.582031 22.152344 8.117188 21.691406 C 7.65625 21.226562 7.242188 20.722656 6.878906 20.179688 C 6.511719 19.636719 6.207031 19.0625 5.953125 18.457031 C 5.703125 17.855469 5.515625 17.230469 5.386719 16.589844 C 5.257812 15.949219 5.195312 15.300781 5.195312 14.644531 C 5.195312 13.992188 5.257812 13.34375 5.386719 12.703125 C 5.515625 12.058594 5.703125 11.4375 5.953125 10.832031 C 6.207031 10.226562 6.511719 9.652344 6.878906 9.109375 C 7.242188 8.566406 7.65625 8.0625 8.117188 7.601562 C 8.582031 7.136719 9.085938 6.726562 9.632812 6.363281 C 10.175781 6 10.75 5.691406 11.355469 5.441406 C 11.964844 5.191406 12.585938 5 13.230469 4.875 C 13.871094 4.746094 14.523438 4.683594 15.175781 4.683594 C 15.832031 4.683594 16.480469 4.746094 17.125 4.875 C 17.769531 5 18.390625 5.191406 18.996094 5.441406 C 19.601562 5.691406 20.179688 6 20.722656 6.363281 C 21.269531 6.726562 21.773438 7.136719 22.234375 7.601562 C 22.699219 8.0625 23.113281 8.566406 23.476562 9.109375 C 23.839844 9.652344 24.148438 10.226562 24.398438 10.832031 C 24.652344 11.4375 24.839844 12.058594 24.96875 12.703125 C 25.09375 13.34375 25.160156 13.992188 25.160156 14.644531 Z M 25.160156 14.644531 " fill-opacity="1" fill-rule="nonzero"/><path fill="#000000" d="M 25.007812 14.644531 C 25.003906 15.671875 24.847656 16.699219 24.527344 17.675781 C 24.222656 18.617188 23.769531 19.511719 23.195312 20.320312 C 22.628906 21.121094 21.9375 21.839844 21.15625 22.433594 C 20.371094 23.03125 19.492188 23.519531 18.5625 23.859375 C 17.601562 24.207031 16.585938 24.410156 15.566406 24.449219 C 14.53125 24.484375 13.492188 24.367188 12.496094 24.085938 C 11.53125 23.8125 10.617188 23.394531 9.777344 22.84375 C 8.957031 22.304688 8.21875 21.640625 7.589844 20.886719 C 6.964844 20.128906 6.449219 19.273438 6.078125 18.363281 C 5.695312 17.425781 5.457031 16.425781 5.378906 15.414062 C 5.300781 14.378906 5.378906 13.335938 5.625 12.328125 C 5.863281 11.351562 6.25 10.417969 6.773438 9.558594 C 7.28125 8.722656 7.917969 7.960938 8.65625 7.304688 C 9.394531 6.652344 10.230469 6.109375 11.128906 5.703125 C 12.046875 5.289062 13.03125 5.015625 14.03125 4.898438 C 15.070312 4.78125 16.128906 4.824219 17.15625 5.03125 C 18.136719 5.234375 19.085938 5.582031 19.964844 6.074219 C 20.824219 6.550781 21.609375 7.160156 22.289062 7.871094 C 22.96875 8.582031 23.542969 9.394531 23.984375 10.277344 C 24.433594 11.179688 24.742188 12.148438 24.894531 13.140625 C 24.96875 13.636719 25.003906 14.140625 25.007812 14.644531 C 25.007812 14.84375 25.3125 14.84375 25.3125 14.644531 C 25.308594 13.585938 25.148438 12.527344 24.820312 11.519531 C 24.503906 10.546875 24.039062 9.625 23.445312 8.792969 C 22.851562 7.960938 22.140625 7.230469 21.332031 6.609375 C 20.519531 5.988281 19.617188 5.492188 18.65625 5.140625 C 17.664062 4.78125 16.617188 4.578125 15.5625 4.535156 C 14.5 4.496094 13.425781 4.621094 12.398438 4.914062 C 11.417969 5.191406 10.476562 5.625 9.621094 6.183594 C 8.777344 6.738281 8.011719 7.421875 7.367188 8.199219 C 6.714844 8.992188 6.183594 9.871094 5.792969 10.820312 C 5.394531 11.789062 5.15625 12.820312 5.074219 13.863281 C 4.988281 14.929688 5.078125 16.007812 5.328125 17.046875 C 5.570312 18.042969 5.972656 19.003906 6.503906 19.882812 C 7.03125 20.75 7.6875 21.535156 8.445312 22.207031 C 9.207031 22.878906 10.070312 23.441406 11 23.859375 C 11.957031 24.292969 12.972656 24.570312 14.015625 24.691406 C 15.078125 24.8125 16.15625 24.765625 17.207031 24.554688 C 18.21875 24.351562 19.199219 23.988281 20.101562 23.488281 C 20.988281 22.996094 21.800781 22.367188 22.503906 21.636719 C 23.203125 20.902344 23.796875 20.0625 24.25 19.15625 C 24.714844 18.226562 25.035156 17.230469 25.191406 16.203125 C 25.269531 15.6875 25.308594 15.164062 25.308594 14.644531 C 25.3125 14.449219 25.007812 14.449219 25.007812 14.644531 Z M 25.007812 14.644531 " fill-opacity="1" fill-rule="nonzero"/></g><path fill="#283462" d="M 9.28125 14.296875 L 20.910156 14.296875 L 20.910156 20.707031 L 9.28125 20.707031 Z M 9.28125 14.296875 " fill-opacity="1" fill-rule="nonzero"/><path fill="#ffffff" d="M 10.226562 15.234375 C 10.226562 15.234375 10.707031 16.632812 11.765625 16.917969 C 12.273438 17.054688 13.738281 17.433594 15.175781 17.433594 C 16.992188 17.433594 18.820312 16.984375 18.820312 16.984375 C 18.820312 16.984375 20.347656 16.742188 20.347656 15.195312 C 19.972656 15.195312 16.976562 16.109375 14.773438 15.984375 C 12.570312 15.851562 10.226562 15.234375 10.226562 15.234375 Z M 10.226562 15.234375 " fill-opacity="1" fill-rule="nonzero"/><path fill="#000000" d="M 10.082031 15.273438 C 10.28125 15.847656 10.648438 16.414062 11.144531 16.777344 C 11.476562 17.023438 11.875 17.109375 12.269531 17.203125 C 12.839844 17.335938 13.414062 17.441406 13.996094 17.511719 C 15.300781 17.664062 16.613281 17.546875 17.902344 17.324219 C 18.214844 17.269531 18.523438 17.207031 18.832031 17.136719 C 18.941406 17.113281 19.042969 17.089844 19.144531 17.050781 C 19.8125 16.816406 20.347656 16.292969 20.464844 15.574219 C 20.484375 15.449219 20.496094 15.324219 20.5 15.199219 C 20.5 15.117188 20.429688 15.046875 20.347656 15.046875 C 20.199219 15.050781 20.050781 15.089844 19.910156 15.121094 C 19.652344 15.179688 19.398438 15.238281 19.140625 15.296875 C 18.40625 15.460938 17.667969 15.613281 16.921875 15.714844 C 16.105469 15.832031 15.285156 15.878906 14.460938 15.8125 C 13.542969 15.742188 12.632812 15.597656 11.730469 15.421875 C 11.242188 15.324219 10.75 15.21875 10.269531 15.09375 C 10.082031 15.042969 10 15.332031 10.1875 15.382812 C 11.453125 15.714844 12.757812 15.945312 14.054688 16.078125 C 14.492188 16.121094 14.9375 16.15625 15.378906 16.148438 C 15.796875 16.140625 16.210938 16.105469 16.625 16.054688 C 17.402344 15.960938 18.171875 15.816406 18.933594 15.652344 C 19.25 15.582031 19.5625 15.507812 19.878906 15.4375 C 19.984375 15.414062 20.085938 15.390625 20.191406 15.371094 C 20.226562 15.367188 20.265625 15.359375 20.300781 15.355469 C 20.332031 15.351562 20.265625 15.359375 20.292969 15.355469 C 20.296875 15.355469 20.3125 15.355469 20.3125 15.355469 C 20.320312 15.351562 20.339844 15.351562 20.347656 15.351562 C 20.296875 15.300781 20.246094 15.253906 20.195312 15.203125 C 20.195312 15.589844 20.085938 15.96875 19.828125 16.265625 C 19.726562 16.378906 19.617188 16.472656 19.496094 16.554688 C 19.4375 16.59375 19.375 16.628906 19.3125 16.660156 C 19.285156 16.675781 19.253906 16.691406 19.222656 16.703125 C 19.210938 16.710938 19.199219 16.714844 19.1875 16.722656 C 19.164062 16.734375 19.195312 16.71875 19.164062 16.730469 C 18.839844 16.859375 18.476562 16.917969 18.136719 16.984375 C 16.953125 17.207031 15.730469 17.351562 14.527344 17.265625 C 13.929688 17.222656 13.332031 17.132812 12.746094 17.007812 C 12.527344 16.960938 12.308594 16.910156 12.09375 16.855469 C 11.929688 16.8125 11.753906 16.777344 11.601562 16.707031 C 11.238281 16.539062 10.957031 16.238281 10.738281 15.90625 C 10.648438 15.773438 10.570312 15.632812 10.496094 15.488281 C 10.472656 15.433594 10.445312 15.378906 10.421875 15.320312 C 10.410156 15.292969 10.429688 15.339844 10.421875 15.3125 C 10.417969 15.304688 10.414062 15.292969 10.40625 15.285156 C 10.402344 15.265625 10.394531 15.253906 10.390625 15.238281 C 10.386719 15.226562 10.378906 15.210938 10.375 15.199219 C 10.304688 15.011719 10.015625 15.089844 10.082031 15.273438 Z M 10.082031 15.273438 " fill-opacity="1" fill-rule="nonzero"/><path fill="#f5d811" d="M 15.175781 6.039062 C 10.402344 6.039062 6.535156 9.890625 6.535156 14.644531 C 6.535156 19.398438 10.402344 23.253906 15.175781 23.253906 C 19.949219 23.253906 23.820312 19.398438 23.820312 14.644531 C 23.820312 9.890625 19.949219 6.039062 15.175781 6.039062 Z M 15.167969 20.707031 C 9.851562 20.707031 10.246094 15.550781 10.246094 15.550781 C 10.246094 15.550781 13.015625 16.5 15.144531 16.5 C 17.273438 16.5 20.332031 15.550781 20.332031 15.550781 C 20.332031 15.550781 20.570312 20.707031 15.167969 20.707031 Z M 15.167969 20.707031 " fill-opacity="1" fill-rule="nonzero"/><path fill="#000000" d="M 15.175781 5.9375 C 13.367188 5.9375 11.578125 6.5 10.105469 7.550781 C 8.675781 8.570312 7.570312 10.007812 6.964844 11.652344 C 6.332031 13.367188 6.265625 15.285156 6.769531 17.042969 C 7.253906 18.730469 8.257812 20.253906 9.617188 21.367188 C 11 22.5 12.710938 23.191406 14.492188 23.328125 C 16.308594 23.46875 18.152344 23.039062 19.710938 22.09375 C 21.207031 21.1875 22.421875 19.828125 23.144531 18.238281 C 23.898438 16.570312 24.109375 14.683594 23.742188 12.886719 C 23.386719 11.160156 22.492188 9.5625 21.214844 8.347656 C 19.933594 7.128906 18.285156 6.308594 16.53125 6.042969 C 16.082031 5.972656 15.628906 5.9375 15.175781 5.9375 C 15.046875 5.9375 15.046875 6.140625 15.175781 6.140625 C 16.945312 6.140625 18.679688 6.691406 20.125 7.710938 C 21.527344 8.703125 22.617188 10.121094 23.203125 11.730469 C 23.816406 13.410156 23.882812 15.269531 23.386719 16.988281 C 22.914062 18.636719 21.933594 20.113281 20.613281 21.203125 C 19.261719 22.316406 17.578125 22.996094 15.832031 23.125 C 14.058594 23.257812 12.265625 22.839844 10.742188 21.914062 C 9.28125 21.03125 8.105469 19.710938 7.398438 18.160156 C 6.65625 16.539062 6.453125 14.6875 6.808594 12.941406 C 7.15625 11.246094 8.027344 9.683594 9.28125 8.492188 C 10.535156 7.296875 12.148438 6.503906 13.859375 6.238281 C 14.296875 6.171875 14.734375 6.140625 15.175781 6.140625 C 15.308594 6.140625 15.308594 5.9375 15.175781 5.9375 Z M 15.175781 5.9375 " fill-opacity="1" fill-rule="nonzero"/><path fill="#000000" d="M 15.167969 20.605469 C 14.324219 20.601562 13.464844 20.472656 12.699219 20.097656 C 12.132812 19.816406 11.636719 19.40625 11.265625 18.890625 C 10.945312 18.449219 10.722656 17.949219 10.574219 17.429688 C 10.453125 17.011719 10.386719 16.597656 10.355469 16.171875 C 10.347656 16.035156 10.34375 15.894531 10.34375 15.757812 C 10.34375 15.695312 10.359375 15.621094 10.351562 15.558594 C 10.351562 15.554688 10.351562 15.550781 10.351562 15.550781 C 10.308594 15.582031 10.265625 15.613281 10.222656 15.648438 C 10.609375 15.78125 11 15.890625 11.394531 15.996094 C 12.222656 16.21875 13.066406 16.40625 13.917969 16.511719 C 14.800781 16.625 15.675781 16.609375 16.558594 16.492188 C 17.386719 16.382812 18.203125 16.210938 19.015625 16.011719 C 19.464844 15.902344 19.914062 15.785156 20.359375 15.648438 C 20.316406 15.613281 20.273438 15.582031 20.230469 15.550781 C 20.238281 15.714844 20.226562 15.886719 20.214844 16.054688 C 20.179688 16.453125 20.113281 16.847656 19.996094 17.246094 C 19.847656 17.761719 19.628906 18.261719 19.324219 18.707031 C 18.964844 19.234375 18.488281 19.667969 17.929688 19.972656 C 17.203125 20.378906 16.367188 20.554688 15.542969 20.59375 C 15.417969 20.601562 15.292969 20.605469 15.167969 20.605469 C 15.039062 20.605469 15.039062 20.808594 15.167969 20.808594 C 16.054688 20.804688 16.953125 20.667969 17.761719 20.289062 C 18.375 20.003906 18.917969 19.574219 19.332031 19.042969 C 19.6875 18.585938 19.945312 18.066406 20.128906 17.519531 C 20.269531 17.09375 20.359375 16.644531 20.40625 16.195312 C 20.425781 15.992188 20.457031 15.765625 20.433594 15.558594 C 20.433594 15.554688 20.433594 15.550781 20.433594 15.550781 C 20.429688 15.488281 20.371094 15.433594 20.304688 15.453125 C 19.183594 15.800781 18.019531 16.070312 16.859375 16.25 C 16 16.382812 15.144531 16.4375 14.277344 16.351562 C 13.40625 16.265625 12.539062 16.085938 11.691406 15.867188 C 11.214844 15.742188 10.742188 15.609375 10.277344 15.453125 C 10.207031 15.429688 10.152344 15.488281 10.148438 15.550781 C 10.132812 15.722656 10.140625 15.898438 10.148438 16.074219 C 10.167969 16.5 10.230469 16.929688 10.339844 17.339844 C 10.476562 17.875 10.691406 18.394531 10.996094 18.859375 C 11.351562 19.394531 11.828125 19.847656 12.386719 20.164062 C 13.117188 20.574219 13.953125 20.757812 14.785156 20.800781 C 14.914062 20.804688 15.042969 20.808594 15.167969 20.808594 C 15.300781 20.808594 15.300781 20.605469 15.167969 20.605469 Z M 15.167969 20.605469 " fill-opacity="1" fill-rule="nonzero"/><path fill="#283462" d="M 12.90625 11.917969 C 12.90625 12.222656 12.882812 12.515625 12.839844 12.800781 C 12.796875 13.082031 12.734375 13.332031 12.652344 13.546875 C 12.574219 13.765625 12.480469 13.929688 12.375 14.046875 C 12.269531 14.164062 12.160156 14.222656 12.046875 14.222656 C 11.933594 14.222656 11.824219 14.164062 11.71875 14.046875 C 11.613281 13.929688 11.519531 13.765625 11.4375 13.546875 C 11.359375 13.332031 11.296875 13.082031 11.253906 12.800781 C 11.210938 12.515625 11.1875 12.222656 11.1875 11.917969 C 11.1875 11.613281 11.210938 11.316406 11.253906 11.035156 C 11.296875 10.753906 11.359375 10.503906 11.4375 10.289062 C 11.519531 10.070312 11.613281 9.90625 11.71875 9.789062 C 11.824219 9.671875 11.933594 9.613281 12.046875 9.613281 C 12.160156 9.613281 12.269531 9.671875 12.375 9.789062 C 12.480469 9.90625 12.574219 10.070312 12.652344 10.289062 C 12.734375 10.503906 12.796875 10.753906 12.839844 11.035156 C 12.882812 11.316406 12.90625 11.613281 12.90625 11.917969 Z M 12.90625 11.917969 " fill-opacity="1" fill-rule="nonzero"/><path fill="#000000" d="M 12.804688 11.917969 C 12.800781 12.34375 12.765625 12.769531 12.660156 13.183594 C 12.589844 13.460938 12.492188 13.773438 12.292969 13.988281 C 11.878906 14.433594 11.554688 13.617188 11.46875 13.308594 C 11.351562 12.914062 11.304688 12.5 11.292969 12.085938 C 11.277344 11.652344 11.308594 11.210938 11.402344 10.789062 C 11.464844 10.484375 11.558594 10.160156 11.75 9.910156 C 11.851562 9.773438 12.011719 9.65625 12.179688 9.753906 C 12.429688 9.902344 12.542969 10.253906 12.621094 10.511719 C 12.753906 10.964844 12.800781 11.445312 12.804688 11.917969 C 12.804688 12.046875 13.007812 12.046875 13.007812 11.917969 C 13.003906 11.445312 12.960938 10.96875 12.832031 10.511719 C 12.75 10.214844 12.628906 9.871094 12.386719 9.65625 C 12.207031 9.5 11.972656 9.464844 11.769531 9.605469 C 11.523438 9.78125 11.394531 10.097656 11.300781 10.378906 C 11.160156 10.8125 11.101562 11.277344 11.089844 11.730469 C 11.074219 12.214844 11.113281 12.707031 11.222656 13.179688 C 11.320312 13.585938 11.640625 14.570312 12.25 14.273438 C 12.546875 14.128906 12.695312 13.75 12.792969 13.457031 C 12.953125 12.964844 13.007812 12.433594 13.007812 11.917969 C 13.007812 11.785156 12.804688 11.785156 12.804688 11.917969 Z M 12.804688 11.917969 " fill-opacity="1" fill-rule="nonzero"/><path fill="#283462" d="M 19.296875 11.917969 C 19.296875 12.222656 19.273438 12.515625 19.230469 12.800781 C 19.1875 13.082031 19.125 13.332031 19.042969 13.546875 C 18.964844 13.765625 18.871094 13.929688 18.765625 14.046875 C 18.660156 14.164062 18.550781 14.222656 18.4375 14.222656 C 18.324219 14.222656 18.214844 14.164062 18.109375 14.046875 C 18.003906 13.929688 17.910156 13.765625 17.828125 13.546875 C 17.75 13.332031 17.6875 13.082031 17.644531 12.800781 C 17.601562 12.515625 17.578125 12.222656 17.578125 11.917969 C 17.578125 11.613281 17.601562 11.316406 17.644531 11.035156 C 17.6875 10.753906 17.75 10.503906 17.828125 10.289062 C 17.910156 10.070312 18.003906 9.90625 18.109375 9.789062 C 18.214844 9.671875 18.324219 9.613281 18.4375 9.613281 C 18.550781 9.613281 18.660156 9.671875 18.765625 9.789062 C 18.871094 9.90625 18.964844 10.070312 19.042969 10.289062 C 19.125 10.503906 19.1875 10.753906 19.230469 11.035156 C 19.273438 11.316406 19.296875 11.613281 19.296875 11.917969 Z M 19.296875 11.917969 " fill-opacity="1" fill-rule="nonzero"/><path fill="#000000" d="M 19.195312 11.917969 C 19.191406 12.34375 19.15625 12.769531 19.050781 13.183594 C 18.980469 13.460938 18.882812 13.773438 18.683594 13.988281 C 18.269531 14.433594 17.945312 13.617188 17.859375 13.308594 C 17.742188 12.914062 17.695312 12.5 17.683594 12.085938 C 17.667969 11.652344 17.699219 11.210938 17.792969 10.789062 C 17.855469 10.484375 17.949219 10.160156 18.140625 9.910156 C 18.242188 9.773438 18.402344 9.65625 18.570312 9.753906 C 18.820312 9.902344 18.933594 10.253906 19.011719 10.511719 C 19.144531 10.964844 19.191406 11.445312 19.195312 11.917969 C 19.195312 12.046875 19.398438 12.046875 19.398438 11.917969 C 19.394531 11.445312 19.351562 10.96875 19.222656 10.511719 C 19.140625 10.214844 19.019531 9.871094 18.777344 9.65625 C 18.601562 9.5 18.363281 9.464844 18.164062 9.605469 C 17.914062 9.78125 17.785156 10.097656 17.691406 10.378906 C 17.550781 10.8125 17.492188 11.277344 17.480469 11.730469 C 17.464844 12.214844 17.503906 12.707031 17.613281 13.179688 C 17.710938 13.585938 18.03125 14.570312 18.640625 14.273438 C 18.9375 14.128906 19.089844 13.75 19.183594 13.457031 C 19.34375 12.964844 19.398438 12.433594 19.398438 11.917969 C 19.398438 11.785156 19.195312 11.785156 19.195312 11.917969 Z M 19.195312 11.917969 " fill-opacity="1" fill-rule="nonzero"/></svg>