<svg xmlns="http://www.w3.org/2000/svg" xmlns:xlink="http://www.w3.org/1999/xlink" width="40" zoomAndPan="magnify" viewBox="0 0 30 30.000001" height="40" preserveAspectRatio="xMidYMid meet" version="1.0"><defs><clipPath id="id1"><path d="M 9.132812 8 L 20.746094 8 L 20.746094 25.472656 L 9.132812 25.472656 Z M 9.132812 8 " clip-rule="nonzero"/></clipPath><clipPath id="id2"><path d="M 11 3.699219 L 19 3.699219 L 19 17 L 11 17 Z M 11 3.699219 " clip-rule="nonzero"/></clipPath><clipPath id="id3"><path d="M 9.132812 3.699219 L 20.746094 3.699219 L 20.746094 25.472656 L 9.132812 25.472656 Z M 9.132812 3.699219 " clip-rule="nonzero"/></clipPath><clipPath id="id4"><path d="M 9.132812 8 L 10 8 L 10 9 L 9.132812 9 Z M 9.132812 8 " clip-rule="nonzero"/></clipPath><clipPath id="id5"><path d="M 9.132812 8 L 10 8 L 10 10 L 9.132812 10 Z M 9.132812 8 " clip-rule="nonzero"/></clipPath><clipPath id="id6"><path d="M 9.132812 8 L 11 8 L 11 14 L 9.132812 14 Z M 9.132812 8 " clip-rule="nonzero"/></clipPath><clipPath id="id7"><path d="M 9.132812 12 L 11 12 L 11 15 L 9.132812 15 Z M 9.132812 12 " clip-rule="nonzero"/></clipPath><clipPath id="id8"><path d="M 9.132812 14 L 11 14 L 11 16 L 9.132812 16 Z M 9.132812 14 " clip-rule="nonzero"/></clipPath><clipPath id="id9"><path d="M 19 8 L 20.746094 8 L 20.746094 10 L 19 10 Z M 19 8 " clip-rule="nonzero"/></clipPath><clipPath id="id10"><path d="M 19 8 L 20.746094 8 L 20.746094 11 L 19 11 Z M 19 8 " clip-rule="nonzero"/></clipPath><clipPath id="id11"><path d="M 19 9 L 20.746094 9 L 20.746094 12 L 19 12 Z M 19 9 " clip-rule="nonzero"/></clipPath><clipPath id="id12"><path d="M 19 10 L 20.746094 10 L 20.746094 12 L 19 12 Z M 19 10 " clip-rule="nonzero"/></clipPath><clipPath id="id13"><path d="M 19 11 L 20.746094 11 L 20.746094 13 L 19 13 Z M 19 11 " clip-rule="nonzero"/></clipPath><clipPath id="id14"><path d="M 19 12 L 20.746094 12 L 20.746094 14 L 19 14 Z M 19 12 " clip-rule="nonzero"/></clipPath><clipPath id="id15"><path d="M 19 12 L 20.746094 12 L 20.746094 15 L 19 15 Z M 19 12 " clip-rule="nonzero"/></clipPath><clipPath id="id16"><path d="M 19 13 L 20.746094 13 L 20.746094 15 L 19 15 Z M 19 13 " clip-rule="nonzero"/></clipPath><clipPath id="id17"><path d="M 19 14 L 20.746094 14 L 20.746094 16 L 19 16 Z M 19 14 " clip-rule="nonzero"/></clipPath><clipPath id="id18"><path d="M 14 3.699219 L 16 3.699219 L 16 6 L 14 6 Z M 14 3.699219 " clip-rule="nonzero"/></clipPath></defs><g clip-path="url(#id1)"><path fill="#38b6ff" d="M 19.742188 8.242188 C 19.351562 8.269531 19.15625 8.636719 19.183594 9 C 19.183594 9.019531 19.179688 9.039062 19.175781 9.054688 C 19.195312 9.09375 19.171875 9.152344 19.128906 9.160156 C 18.96875 9.199219 18.785156 9.214844 18.621094 9.214844 C 18.613281 9.214844 18.605469 9.214844 18.597656 9.210938 C 18.59375 9.285156 18.589844 9.359375 18.585938 9.433594 C 18.640625 9.425781 18.699219 9.433594 18.753906 9.4375 C 18.828125 9.441406 18.898438 9.460938 18.960938 9.492188 C 18.984375 9.484375 19.011719 9.496094 19.023438 9.523438 C 19.027344 9.523438 19.03125 9.527344 19.035156 9.527344 C 19.066406 9.546875 19.0625 9.59375 19.035156 9.609375 C 19.128906 10.371094 19.125 11.164062 19.121094 11.933594 C 19.117188 12.757812 19.070312 13.582031 18.851562 14.378906 C 18.394531 16.0625 16.683594 17.417969 14.9375 17.207031 C 13.1875 17.417969 11.476562 16.0625 11.019531 14.378906 C 10.800781 13.582031 10.753906 12.757812 10.75 11.933594 C 10.746094 11.164062 10.742188 10.371094 10.835938 9.609375 C 10.808594 9.59375 10.808594 9.546875 10.839844 9.527344 C 10.84375 9.527344 10.84375 9.523438 10.847656 9.523438 C 10.859375 9.496094 10.886719 9.484375 10.910156 9.492188 C 10.976562 9.460938 11.042969 9.441406 11.117188 9.4375 C 11.171875 9.433594 11.230469 9.425781 11.285156 9.433594 C 11.28125 9.359375 11.277344 9.285156 11.277344 9.210938 C 11.265625 9.214844 11.257812 9.214844 11.25 9.214844 C 11.085938 9.214844 10.902344 9.199219 10.742188 9.160156 C 10.699219 9.152344 10.675781 9.09375 10.695312 9.054688 C 10.691406 9.039062 10.6875 9.019531 10.691406 9 C 10.714844 8.636719 10.519531 8.269531 10.128906 8.242188 C 9.78125 8.21875 9.59375 8.40625 9.4375 8.664062 C 9.582031 9.25 9.496094 9.921875 9.484375 10.523438 C 9.476562 11.085938 9.464844 11.648438 9.496094 12.210938 C 9.546875 13.179688 9.695312 14.152344 10.085938 15.042969 C 10.46875 15.910156 11.039062 16.710938 11.792969 17.277344 C 12.148438 17.542969 12.535156 17.789062 12.945312 17.960938 C 13.152344 18.046875 13.371094 18.140625 13.597656 18.152344 C 13.734375 18.160156 13.84375 18.144531 13.964844 18.183594 C 13.984375 18.1875 14.003906 18.195312 14.019531 18.207031 C 14.023438 18.207031 14.023438 18.210938 14.027344 18.210938 C 14.078125 18.238281 14.09375 18.304688 14.078125 18.355469 C 14.175781 18.847656 14.136719 19.382812 14.125 19.878906 C 14.117188 20.394531 14.101562 20.910156 14.09375 21.421875 C 14.085938 21.859375 14.066406 22.296875 14.085938 22.734375 C 14.089844 22.855469 14.125 23.023438 14.105469 23.164062 C 14.109375 23.199219 14.097656 23.234375 14.082031 23.265625 C 14.078125 23.269531 14.078125 23.277344 14.074219 23.28125 L 14.070312 23.277344 C 14 23.375 13.847656 23.421875 13.753906 23.324219 C 13.683594 23.335938 12.425781 23.320312 12.402344 24.105469 C 12.390625 24.546875 12.390625 24.765625 12.847656 25.09375 C 13.199219 25.105469 16.507812 25.113281 17.023438 25.09375 C 17.410156 24.894531 17.527344 24.542969 17.46875 24.105469 C 17.417969 23.757812 17.242188 23.378906 16.332031 23.351562 C 16.261719 23.347656 16.1875 23.335938 16.117188 23.324219 C 16.027344 23.421875 15.871094 23.375 15.800781 23.277344 L 15.796875 23.28125 C 15.792969 23.277344 15.792969 23.269531 15.789062 23.265625 C 15.773438 23.234375 15.761719 23.199219 15.765625 23.164062 C 15.746094 23.023438 15.78125 22.855469 15.789062 22.734375 C 15.804688 22.296875 15.785156 21.859375 15.777344 21.421875 C 15.769531 20.910156 15.757812 20.394531 15.746094 19.878906 C 15.734375 19.382812 15.695312 18.847656 15.796875 18.355469 C 15.777344 18.304688 15.792969 18.238281 15.84375 18.210938 C 15.847656 18.210938 15.847656 18.207031 15.851562 18.207031 C 15.867188 18.195312 15.886719 18.1875 15.90625 18.183594 C 16.027344 18.144531 16.136719 18.160156 16.273438 18.152344 C 16.5 18.140625 16.71875 18.046875 16.925781 17.960938 C 17.335938 17.789062 17.722656 17.542969 18.078125 17.277344 C 18.832031 16.710938 19.402344 15.910156 19.785156 15.042969 C 20.175781 14.152344 20.324219 13.179688 20.375 12.210938 C 20.40625 11.648438 20.394531 11.085938 20.386719 10.523438 C 20.378906 9.921875 20.289062 9.25 20.433594 8.664062 C 20.277344 8.40625 20.09375 8.21875 19.742188 8.242188 Z M 19.742188 8.242188 " fill-opacity="1" fill-rule="nonzero"/></g><g clip-path="url(#id2)"><path fill="#38b6ff" d="M 11.582031 8.757812 C 11.597656 9.273438 11.621094 9.789062 11.652344 10.300781 C 11.707031 11.195312 11.714844 12.105469 11.816406 12.996094 C 11.917969 13.875 12.183594 14.804688 12.890625 15.382812 C 13.253906 15.679688 13.671875 15.902344 14.128906 16.011719 C 14.761719 16.164062 15.632812 16.039062 15.742188 16.011719 C 16.199219 15.902344 16.617188 15.679688 16.980469 15.382812 C 17.6875 14.804688 17.953125 13.875 18.054688 12.996094 C 18.15625 12.105469 18.164062 11.195312 18.21875 10.300781 C 18.25 9.789062 18.273438 9.273438 18.289062 8.757812 C 18.304688 8.257812 18.265625 7.738281 18.308594 7.238281 C 18.199219 6.929688 18.238281 6.558594 18.128906 6.246094 C 17.964844 5.769531 17.636719 5.375 17.277344 5.035156 C 16.925781 4.703125 16.503906 4.453125 16.0625 4.269531 C 15.695312 4.117188 15.308594 4.082031 14.9375 3.964844 C 14.5625 4.082031 14.175781 4.117188 13.808594 4.269531 C 13.371094 4.453125 12.945312 4.703125 12.59375 5.035156 C 12.234375 5.375 11.90625 5.769531 11.742188 6.246094 C 11.632812 6.558594 11.671875 6.929688 11.5625 7.238281 C 11.605469 7.738281 11.570312 8.257812 11.582031 8.757812 Z M 11.582031 8.757812 " fill-opacity="1" fill-rule="nonzero"/></g><g clip-path="url(#id3)"><path fill="#ff66c4" d="M 20.574219 8.820312 C 20.582031 8.816406 20.59375 8.808594 20.59375 8.792969 C 20.675781 8.273438 20.128906 7.875 19.65625 7.960938 C 19.136719 8.054688 18.871094 8.484375 18.910156 8.992188 C 18.804688 8.988281 18.695312 8.996094 18.601562 9.023438 C 18.605469 8.871094 18.605469 8.71875 18.609375 8.5625 C 18.609375 8.128906 18.625 7.671875 18.554688 7.234375 C 18.773438 6.367188 18.070312 5.304688 17.453125 4.800781 C 16.816406 4.28125 15.789062 3.695312 14.9375 3.875 C 14.082031 3.695312 13.054688 4.28125 12.417969 4.800781 C 11.800781 5.304688 11.097656 6.367188 11.316406 7.234375 C 11.246094 7.671875 11.261719 8.128906 11.261719 8.5625 C 11.265625 8.71875 11.265625 8.871094 11.269531 9.023438 C 11.175781 8.996094 11.066406 8.988281 10.964844 8.992188 C 11 8.484375 10.734375 8.054688 10.214844 7.960938 C 9.742188 7.875 9.195312 8.273438 9.277344 8.792969 C 9.277344 8.808594 9.289062 8.816406 9.296875 8.820312 C 9.191406 9.359375 9.214844 9.949219 9.191406 10.488281 C 9.160156 11.167969 9.152344 11.851562 9.1875 12.53125 C 9.246094 13.566406 9.457031 14.617188 9.914062 15.550781 C 10.367188 16.476562 11.023438 17.246094 11.871094 17.820312 C 12.179688 18.035156 13.1875 18.6875 13.757812 18.582031 C 13.714844 18.9375 13.726562 19.308594 13.714844 19.660156 C 13.695312 20.175781 13.6875 22.355469 13.65625 23.042969 C 13.5625 23.042969 13.464844 23.054688 13.371094 23.0625 C 13.21875 23.078125 12.179688 23.101562 12.0625 24.015625 C 12 24.496094 12.277344 25.214844 12.738281 25.339844 C 12.757812 25.347656 12.777344 25.347656 12.792969 25.339844 C 13.085938 25.46875 16.785156 25.46875 17.078125 25.339844 C 17.09375 25.347656 17.113281 25.347656 17.132812 25.339844 C 17.59375 25.214844 17.941406 24.480469 17.808594 24.015625 C 17.703125 23.648438 17.554688 23.09375 16.5 23.0625 C 16.40625 23.0625 16.308594 23.042969 16.214844 23.042969 C 16.210938 22.261719 16.175781 20.175781 16.160156 19.660156 C 16.144531 19.308594 16.15625 18.9375 16.113281 18.582031 C 16.683594 18.6875 17.691406 18.035156 18 17.820312 C 18.847656 17.246094 19.503906 16.476562 19.957031 15.550781 C 20.414062 14.617188 20.625 13.566406 20.683594 12.53125 C 20.71875 11.851562 20.710938 11.167969 20.679688 10.488281 C 20.65625 9.949219 20.679688 9.359375 20.574219 8.820312 Z M 11.742188 6.246094 C 11.90625 5.769531 12.234375 5.375 12.59375 5.035156 C 12.945312 4.703125 13.371094 4.453125 13.808594 4.269531 C 14.175781 4.117188 14.5625 4.082031 14.9375 3.964844 C 15.308594 4.082031 15.695312 4.117188 16.0625 4.269531 C 16.503906 4.453125 16.925781 4.703125 17.277344 5.035156 C 17.636719 5.375 17.964844 5.769531 18.128906 6.246094 C 18.238281 6.558594 18.199219 6.929688 18.308594 7.238281 C 18.265625 7.738281 18.304688 8.257812 18.289062 8.757812 C 18.273438 9.273438 18.25 9.789062 18.21875 10.300781 C 18.164062 11.195312 18.15625 12.105469 18.054688 12.996094 C 17.953125 13.875 17.6875 14.804688 16.980469 15.382812 C 16.617188 15.679688 16.199219 15.902344 15.742188 16.011719 C 15.632812 16.039062 14.761719 16.164062 14.128906 16.011719 C 13.671875 15.902344 13.253906 15.679688 12.890625 15.382812 C 12.183594 14.804688 11.917969 13.875 11.816406 12.996094 C 11.714844 12.105469 11.707031 11.195312 11.652344 10.300781 C 11.621094 9.789062 11.597656 9.273438 11.582031 8.757812 C 11.570312 8.257812 11.605469 7.738281 11.5625 7.238281 C 11.671875 6.929688 11.632812 6.558594 11.742188 6.246094 Z M 11.339844 10.636719 C 11.394531 11.675781 11.378906 12.742188 11.574219 13.769531 C 11.746094 14.671875 12.21875 15.429688 12.957031 15.953125 C 13.367188 16.246094 14.285156 16.65625 14.9375 16.554688 C 15.585938 16.65625 16.503906 16.246094 16.914062 15.953125 C 17.652344 15.429688 18.125 14.671875 18.296875 13.769531 C 18.496094 12.742188 18.476562 11.675781 18.53125 10.636719 C 18.550781 10.296875 18.566406 9.957031 18.582031 9.617188 C 18.640625 9.617188 18.707031 9.605469 18.765625 9.613281 C 18.820312 9.617188 18.875 9.617188 18.929688 9.617188 C 18.796875 11.082031 19.121094 12.558594 18.71875 14.007812 C 18.25 15.6875 16.78125 17.113281 14.953125 16.902344 C 14.949219 16.902344 14.941406 16.902344 14.9375 16.902344 C 14.929688 16.902344 14.921875 16.902344 14.917969 16.902344 C 13.089844 17.113281 11.621094 15.6875 11.152344 14.007812 C 10.75 12.558594 11.074219 11.082031 10.941406 9.617188 C 10.996094 9.617188 11.050781 9.617188 11.109375 9.613281 C 11.164062 9.605469 11.230469 9.617188 11.289062 9.617188 C 11.304688 9.957031 11.320312 10.296875 11.339844 10.636719 Z M 20.386719 10.523438 C 20.394531 11.085938 20.40625 11.648438 20.375 12.210938 C 20.324219 13.179688 20.175781 14.152344 19.785156 15.042969 C 19.402344 15.910156 18.832031 16.710938 18.078125 17.277344 C 17.722656 17.542969 17.335938 17.789062 16.925781 17.960938 C 16.71875 18.046875 16.5 18.140625 16.273438 18.152344 C 16.136719 18.160156 16.027344 18.144531 15.90625 18.183594 C 15.886719 18.1875 15.867188 18.195312 15.851562 18.207031 C 15.847656 18.207031 15.847656 18.210938 15.84375 18.210938 C 15.792969 18.238281 15.777344 18.304688 15.796875 18.355469 C 15.695312 18.847656 15.734375 19.382812 15.746094 19.878906 C 15.757812 20.394531 15.769531 20.910156 15.777344 21.421875 C 15.785156 21.859375 15.804688 22.296875 15.789062 22.734375 C 15.78125 22.855469 15.746094 23.023438 15.765625 23.164062 C 15.761719 23.199219 15.773438 23.234375 15.789062 23.265625 C 15.792969 23.269531 15.792969 23.277344 15.796875 23.28125 L 15.800781 23.277344 C 15.871094 23.375 16.027344 23.421875 16.117188 23.324219 C 16.1875 23.335938 16.261719 23.347656 16.332031 23.351562 C 17.242188 23.378906 17.417969 23.757812 17.46875 24.105469 C 17.527344 24.542969 17.410156 24.894531 17.023438 25.09375 C 16.507812 25.113281 13.199219 25.105469 12.847656 25.09375 C 12.390625 24.765625 12.390625 24.546875 12.402344 24.105469 C 12.425781 23.320312 13.683594 23.335938 13.753906 23.324219 C 13.847656 23.421875 14 23.375 14.070312 23.277344 L 14.074219 23.28125 C 14.078125 23.277344 14.078125 23.269531 14.082031 23.265625 C 14.097656 23.234375 14.109375 23.199219 14.105469 23.164062 C 14.125 23.023438 14.089844 22.855469 14.085938 22.734375 C 14.066406 22.296875 14.085938 21.859375 14.09375 21.421875 C 14.101562 20.910156 14.117188 20.394531 14.125 19.878906 C 14.136719 19.382812 14.175781 18.847656 14.078125 18.355469 C 14.09375 18.304688 14.078125 18.238281 14.027344 18.210938 C 14.023438 18.210938 14.023438 18.207031 14.019531 18.207031 C 14.003906 18.195312 13.984375 18.1875 13.964844 18.183594 C 13.84375 18.144531 13.734375 18.160156 13.597656 18.152344 C 13.371094 18.140625 13.152344 18.046875 12.945312 17.960938 C 12.535156 17.789062 12.148438 17.542969 11.792969 17.277344 C 11.039062 16.710938 10.46875 15.910156 10.085938 15.042969 C 9.695312 14.152344 9.546875 13.179688 9.496094 12.210938 C 9.464844 11.648438 9.476562 11.085938 9.484375 10.523438 C 9.496094 9.921875 9.582031 9.25 9.4375 8.664062 C 9.59375 8.40625 9.78125 8.21875 10.128906 8.242188 C 10.519531 8.269531 10.714844 8.636719 10.691406 9 C 10.6875 9.019531 10.691406 9.039062 10.695312 9.054688 C 10.675781 9.09375 10.699219 9.152344 10.742188 9.160156 C 10.902344 9.199219 11.085938 9.214844 11.25 9.214844 C 11.257812 9.214844 11.265625 9.214844 11.277344 9.210938 C 11.277344 9.285156 11.28125 9.359375 11.285156 9.433594 C 11.230469 9.425781 11.171875 9.433594 11.117188 9.4375 C 11.042969 9.441406 10.976562 9.460938 10.910156 9.492188 C 10.886719 9.484375 10.859375 9.496094 10.847656 9.523438 C 10.84375 9.523438 10.84375 9.527344 10.839844 9.527344 C 10.808594 9.546875 10.808594 9.59375 10.835938 9.609375 C 10.742188 10.371094 10.746094 11.164062 10.75 11.933594 C 10.753906 12.757812 10.800781 13.582031 11.019531 14.378906 C 11.476562 16.0625 13.1875 17.417969 14.9375 17.207031 C 16.683594 17.417969 18.394531 16.0625 18.851562 14.378906 C 19.070312 13.582031 19.117188 12.757812 19.121094 11.933594 C 19.125 11.164062 19.128906 10.371094 19.035156 9.609375 C 19.0625 9.59375 19.066406 9.546875 19.035156 9.527344 C 19.03125 9.527344 19.027344 9.523438 19.023438 9.523438 C 19.011719 9.496094 18.984375 9.484375 18.960938 9.492188 C 18.898438 9.460938 18.828125 9.441406 18.753906 9.4375 C 18.699219 9.433594 18.640625 9.425781 18.585938 9.433594 C 18.589844 9.359375 18.59375 9.285156 18.597656 9.210938 C 18.605469 9.214844 18.613281 9.214844 18.621094 9.214844 C 18.785156 9.214844 18.96875 9.199219 19.128906 9.160156 C 19.171875 9.152344 19.195312 9.09375 19.175781 9.054688 C 19.179688 9.039062 19.183594 9.019531 19.183594 9 C 19.15625 8.636719 19.351562 8.269531 19.742188 8.242188 C 20.09375 8.21875 20.277344 8.40625 20.433594 8.664062 C 20.289062 9.25 20.378906 9.921875 20.386719 10.523438 Z M 20.386719 10.523438 " fill-opacity="1" fill-rule="nonzero"/></g><g clip-path="url(#id4)"><path fill="#ff66c4" d="M 9.808594 8.457031 C 9.789062 8.457031 9.769531 8.457031 9.75 8.457031 C 9.746094 8.457031 9.746094 8.464844 9.75 8.464844 C 9.769531 8.464844 9.789062 8.464844 9.808594 8.46875 C 9.816406 8.46875 9.816406 8.457031 9.808594 8.457031 Z M 9.808594 8.457031 " fill-opacity="1" fill-rule="nonzero"/></g><g clip-path="url(#id5)"><path fill="#ff66c4" d="M 9.933594 9.222656 C 9.867188 9.074219 9.746094 8.964844 9.6875 8.808594 C 9.617188 8.628906 9.652344 8.460938 9.675781 8.277344 C 9.675781 8.261719 9.652344 8.253906 9.644531 8.265625 C 9.421875 8.554688 9.535156 9.125 9.886719 9.265625 C 9.910156 9.273438 9.945312 9.253906 9.933594 9.222656 Z M 9.933594 9.222656 " fill-opacity="1" fill-rule="nonzero"/></g><g clip-path="url(#id6)"><path fill="#ff66c4" d="M 10.222656 12.550781 C 10.054688 12.398438 9.867188 12.292969 9.726562 12.097656 C 9.640625 11.976562 9.609375 11.847656 9.585938 11.71875 C 9.675781 11.84375 9.796875 11.929688 9.953125 11.953125 C 9.988281 11.960938 10.003906 11.921875 9.984375 11.898438 C 9.859375 11.75 9.71875 11.648438 9.628906 11.472656 C 9.53125 11.285156 9.492188 11.066406 9.480469 10.851562 C 9.566406 11.035156 9.691406 11.199219 9.84375 11.3125 C 9.890625 11.34375 9.933594 11.285156 9.90625 11.242188 C 9.632812 10.800781 9.464844 10.484375 9.441406 9.960938 C 9.507812 10.203125 9.628906 10.429688 9.8125 10.570312 C 9.851562 10.597656 9.902344 10.554688 9.882812 10.511719 C 9.816406 10.359375 9.722656 10.226562 9.652344 10.074219 C 9.578125 9.914062 9.535156 9.742188 9.503906 9.570312 C 9.585938 9.714844 9.703125 9.828125 9.863281 9.878906 C 9.886719 9.882812 9.902344 9.859375 9.894531 9.839844 C 9.792969 9.648438 9.640625 9.503906 9.558594 9.300781 C 9.460938 9.066406 9.464844 8.804688 9.507812 8.5625 C 9.511719 8.527344 9.460938 8.503906 9.449219 8.539062 C 9.367188 8.726562 9.34375 8.984375 9.386719 9.226562 C 9.363281 9.410156 9.371094 9.621094 9.410156 9.832031 C 9.402344 9.832031 9.394531 9.835938 9.394531 9.84375 C 9.3125 10.101562 9.324219 10.40625 9.414062 10.679688 C 9.371094 10.890625 9.375 11.195312 9.457031 11.453125 C 9.421875 11.539062 9.421875 11.644531 9.441406 11.746094 C 9.433594 11.746094 9.425781 11.75 9.425781 11.761719 C 9.367188 12.078125 9.421875 12.367188 9.566406 12.652344 C 9.679688 12.871094 9.886719 13.191406 10.136719 13.25 C 10.160156 13.253906 10.183594 13.234375 10.175781 13.210938 C 10.082031 13 9.863281 12.851562 9.734375 12.65625 C 9.582031 12.429688 9.503906 12.164062 9.476562 11.890625 C 9.496094 11.960938 9.523438 12.023438 9.554688 12.074219 C 9.6875 12.316406 9.914062 12.585938 10.203125 12.597656 C 10.226562 12.597656 10.242188 12.566406 10.222656 12.550781 Z M 10.222656 12.550781 " fill-opacity="1" fill-rule="nonzero"/></g><g clip-path="url(#id7)"><path fill="#ff66c4" d="M 10.445312 14.511719 C 10.222656 14.378906 10.03125 14.277344 9.867188 14.0625 C 9.667969 13.808594 9.566406 13.492188 9.464844 13.183594 C 9.476562 13.214844 9.488281 13.246094 9.503906 13.28125 C 9.601562 13.511719 9.820312 13.84375 10.078125 13.910156 C 10.113281 13.917969 10.128906 13.871094 10.117188 13.84375 C 10 13.636719 9.789062 13.492188 9.660156 13.285156 C 9.519531 13.046875 9.4375 12.757812 9.441406 12.480469 C 9.441406 12.449219 9.394531 12.441406 9.390625 12.472656 C 9.351562 12.726562 9.375 12.945312 9.460938 13.179688 C 9.457031 13.160156 9.425781 13.167969 9.425781 13.1875 C 9.441406 13.71875 9.796875 14.5625 10.414062 14.59375 C 10.453125 14.59375 10.484375 14.539062 10.445312 14.511719 Z M 10.445312 14.511719 " fill-opacity="1" fill-rule="nonzero"/></g><g clip-path="url(#id8)"><path fill="#ff66c4" d="M 10.597656 15.097656 C 10.390625 14.964844 10.183594 14.871094 10 14.695312 C 9.835938 14.535156 9.703125 14.332031 9.59375 14.132812 C 9.578125 14.101562 9.523438 14.121094 9.539062 14.15625 C 9.703125 14.5625 10.058594 15.179688 10.566406 15.183594 C 10.609375 15.183594 10.640625 15.125 10.597656 15.097656 Z M 10.597656 15.097656 " fill-opacity="1" fill-rule="nonzero"/><path fill="#ff66c4" d="M 10.925781 15.664062 C 10.851562 15.605469 10.765625 15.582031 10.675781 15.542969 C 10.519531 15.480469 10.386719 15.386719 10.257812 15.273438 C 10.085938 15.121094 9.9375 14.941406 9.804688 14.746094 C 9.78125 14.714844 9.734375 14.746094 9.753906 14.78125 C 9.871094 15.027344 10.015625 15.25 10.21875 15.4375 C 10.386719 15.589844 10.679688 15.789062 10.914062 15.722656 C 10.9375 15.71875 10.945312 15.679688 10.925781 15.664062 Z M 10.925781 15.664062 " fill-opacity="1" fill-rule="nonzero"/></g><path fill="#ff66c4" d="M 11.199219 16.160156 C 11.054688 16.042969 10.835938 16.015625 10.667969 15.921875 C 10.527344 15.839844 10.394531 15.738281 10.28125 15.617188 C 10.238281 15.574219 10.203125 15.515625 10.144531 15.5 C 10.144531 15.5 10.140625 15.503906 10.140625 15.503906 C 10.09375 15.652344 10.355469 15.851562 10.441406 15.925781 C 10.613281 16.074219 10.957031 16.304688 11.1875 16.21875 C 11.207031 16.210938 11.21875 16.179688 11.199219 16.160156 Z M 11.199219 16.160156 " fill-opacity="1" fill-rule="nonzero"/><path fill="#ff66c4" d="M 12.058594 16.71875 C 11.835938 16.6875 11.621094 16.6875 11.398438 16.621094 C 11.0625 16.523438 10.789062 16.289062 10.519531 16.074219 C 10.503906 16.058594 10.476562 16.085938 10.488281 16.105469 C 10.78125 16.582031 11.503906 17.035156 12.070312 16.828125 C 12.128906 16.804688 12.121094 16.726562 12.058594 16.71875 Z M 12.058594 16.71875 " fill-opacity="1" fill-rule="nonzero"/><path fill="#ff66c4" d="M 12.589844 17.234375 C 12.398438 17.132812 12.128906 17.183594 11.910156 17.140625 C 11.671875 17.09375 11.464844 16.980469 11.253906 16.867188 C 11.226562 16.851562 11.191406 16.886719 11.210938 16.914062 C 11.375 17.136719 11.613281 17.246094 11.871094 17.320312 C 12.074219 17.382812 12.421875 17.441406 12.597656 17.296875 C 12.617188 17.28125 12.617188 17.246094 12.589844 17.234375 Z M 12.589844 17.234375 " fill-opacity="1" fill-rule="nonzero"/><path fill="#ff66c4" d="M 13.34375 17.574219 C 13.140625 17.503906 12.921875 17.53125 12.710938 17.527344 C 12.453125 17.515625 12.199219 17.460938 11.945312 17.421875 C 11.90625 17.414062 11.894531 17.460938 11.921875 17.480469 C 12.277344 17.726562 12.949219 17.828125 13.347656 17.640625 C 13.378906 17.625 13.375 17.585938 13.34375 17.574219 Z M 13.34375 17.574219 " fill-opacity="1" fill-rule="nonzero"/><path fill="#ff66c4" d="M 13.6875 17.933594 C 13.53125 17.894531 13.375 17.929688 13.21875 17.933594 C 13.023438 17.941406 12.835938 17.914062 12.640625 17.910156 C 12.601562 17.90625 12.578125 17.960938 12.621094 17.980469 C 12.910156 18.125 13.410156 18.195312 13.699219 18.015625 C 13.726562 17.996094 13.71875 17.941406 13.6875 17.933594 Z M 13.6875 17.933594 " fill-opacity="1" fill-rule="nonzero"/><path fill="#ff66c4" d="M 14.558594 19.199219 C 14.488281 19.050781 14.378906 18.921875 14.296875 18.78125 C 14.222656 18.65625 14.175781 18.527344 14.132812 18.390625 C 14.136719 18.386719 14.144531 18.382812 14.148438 18.382812 C 14.167969 18.367188 14.171875 18.332031 14.152344 18.316406 C 14.136719 18.304688 14.121094 18.296875 14.105469 18.289062 C 14.101562 18.285156 14.101562 18.28125 14.097656 18.273438 C 14.089844 18.242188 14.042969 18.242188 14.03125 18.269531 C 13.964844 18.257812 13.890625 18.265625 13.820312 18.261719 C 13.648438 18.253906 13.480469 18.234375 13.3125 18.21875 C 13.273438 18.21875 13.25 18.273438 13.289062 18.289062 C 13.457031 18.347656 13.625 18.382812 13.800781 18.40625 C 13.878906 18.417969 13.957031 18.433594 14.03125 18.425781 C 14.066406 18.734375 14.25 19.082031 14.496094 19.246094 C 14.523438 19.265625 14.578125 19.238281 14.558594 19.199219 Z M 14.558594 19.199219 " fill-opacity="1" fill-rule="nonzero"/><g clip-path="url(#id9)"><path fill="#ff66c4" d="M 20.171875 8.253906 C 20.15625 8.226562 20.113281 8.238281 20.105469 8.269531 C 20.078125 8.425781 20.085938 8.574219 20.035156 8.730469 C 19.96875 8.921875 19.832031 9.070312 19.746094 9.25 C 19.726562 9.285156 19.769531 9.3125 19.796875 9.296875 C 20.074219 9.144531 20.355469 8.558594 20.171875 8.253906 Z M 20.171875 8.253906 " fill-opacity="1" fill-rule="nonzero"/></g><g clip-path="url(#id10)"><path fill="#ff66c4" d="M 20.445312 8.925781 C 20.441406 8.902344 20.414062 8.890625 20.398438 8.902344 C 20.425781 8.742188 20.425781 8.578125 20.386719 8.421875 C 20.378906 8.390625 20.328125 8.390625 20.324219 8.421875 C 20.296875 8.671875 20.269531 8.898438 20.171875 9.128906 C 20.0625 9.382812 19.867188 9.578125 19.71875 9.804688 C 19.703125 9.832031 19.738281 9.863281 19.765625 9.847656 C 20.042969 9.679688 20.265625 9.375 20.363281 9.042969 C 20.3125 9.300781 20.253906 9.539062 20.144531 9.785156 C 20.015625 10.0625 19.789062 10.277344 19.660156 10.546875 C 19.644531 10.574219 19.675781 10.605469 19.703125 10.589844 C 20.207031 10.3125 20.515625 9.480469 20.445312 8.925781 Z M 20.445312 8.925781 " fill-opacity="1" fill-rule="nonzero"/></g><g clip-path="url(#id11)"><path fill="#ff66c4" d="M 20.460938 9.691406 C 20.449219 9.640625 20.378906 9.640625 20.371094 9.691406 C 20.328125 9.988281 20.273438 10.257812 20.132812 10.523438 C 20.023438 10.730469 19.832031 10.890625 19.746094 11.101562 C 19.734375 11.132812 19.757812 11.164062 19.789062 11.152344 C 20.261719 10.984375 20.550781 10.15625 20.460938 9.691406 Z M 20.460938 9.691406 " fill-opacity="1" fill-rule="nonzero"/></g><g clip-path="url(#id12)"><path fill="#ff66c4" d="M 20.449219 10.589844 C 20.445312 10.550781 20.394531 10.550781 20.382812 10.585938 C 20.308594 10.832031 20.246094 11.070312 20.128906 11.296875 C 20.027344 11.484375 19.882812 11.648438 19.796875 11.84375 C 19.777344 11.886719 19.832031 11.921875 19.867188 11.894531 C 20.230469 11.640625 20.503906 11.035156 20.449219 10.589844 Z M 20.449219 10.589844 " fill-opacity="1" fill-rule="nonzero"/></g><g clip-path="url(#id13)"><path fill="#ff66c4" d="M 20.5 11.296875 C 20.445312 11.566406 20.351562 11.820312 20.207031 12.050781 C 20.117188 12.203125 19.953125 12.324219 19.894531 12.492188 C 19.886719 12.523438 19.910156 12.554688 19.941406 12.542969 C 20.136719 12.488281 20.277344 12.242188 20.375 12.078125 C 20.515625 11.839844 20.582031 11.578125 20.578125 11.300781 C 20.574219 11.253906 20.507812 11.253906 20.5 11.296875 Z M 20.5 11.296875 " fill-opacity="1" fill-rule="nonzero"/></g><g clip-path="url(#id14)"><path fill="#ff66c4" d="M 20.597656 12.042969 C 20.597656 12.011719 20.546875 12.003906 20.539062 12.039062 C 20.472656 12.265625 20.367188 12.460938 20.230469 12.652344 C 20.097656 12.839844 19.917969 12.992188 19.796875 13.191406 C 19.773438 13.230469 19.816406 13.292969 19.859375 13.265625 C 20.230469 13.03125 20.625 12.503906 20.597656 12.042969 Z M 20.597656 12.042969 " fill-opacity="1" fill-rule="nonzero"/></g><g clip-path="url(#id15)"><path fill="#ff66c4" d="M 20.414062 12.863281 C 20.339844 13.070312 20.238281 13.257812 20.109375 13.433594 C 19.960938 13.636719 19.734375 13.769531 19.597656 13.976562 C 19.578125 14.003906 19.609375 14.03125 19.636719 14.023438 C 19.851562 13.964844 20.03125 13.75 20.167969 13.574219 C 20.328125 13.371094 20.425781 13.140625 20.480469 12.886719 C 20.492188 12.847656 20.429688 12.824219 20.414062 12.863281 Z M 20.414062 12.863281 " fill-opacity="1" fill-rule="nonzero"/></g><g clip-path="url(#id16)"><path fill="#ff66c4" d="M 20.371094 13.582031 C 20.367188 13.570312 20.351562 13.570312 20.34375 13.574219 C 20.273438 13.628906 20.246094 13.71875 20.203125 13.792969 C 20.121094 13.925781 20.015625 14.042969 19.90625 14.148438 C 19.714844 14.335938 19.472656 14.449219 19.273438 14.621094 C 19.253906 14.636719 19.269531 14.671875 19.292969 14.667969 C 19.558594 14.652344 19.824219 14.4375 20.003906 14.253906 C 20.136719 14.117188 20.453125 13.800781 20.371094 13.582031 Z M 20.371094 13.582031 " fill-opacity="1" fill-rule="nonzero"/></g><g clip-path="url(#id17)"><path fill="#ff66c4" d="M 20.144531 14.246094 C 19.996094 14.441406 19.847656 14.617188 19.660156 14.769531 C 19.476562 14.921875 19.191406 15.015625 19.054688 15.203125 C 19.035156 15.230469 19.050781 15.261719 19.082031 15.261719 C 19.3125 15.261719 19.578125 15.027344 19.75 14.890625 C 19.945312 14.730469 20.125 14.527344 20.207031 14.285156 C 20.222656 14.246094 20.171875 14.207031 20.144531 14.246094 Z M 20.144531 14.246094 " fill-opacity="1" fill-rule="nonzero"/></g><path fill="#ff66c4" d="M 19.90625 14.863281 C 19.757812 15.070312 19.605469 15.246094 19.40625 15.40625 C 19.179688 15.585938 18.867188 15.660156 18.65625 15.851562 C 18.632812 15.875 18.660156 15.910156 18.6875 15.910156 C 18.96875 15.921875 19.28125 15.6875 19.496094 15.519531 C 19.703125 15.359375 19.882812 15.152344 19.964844 14.894531 C 19.972656 14.863281 19.925781 14.835938 19.90625 14.863281 Z M 19.90625 14.863281 " fill-opacity="1" fill-rule="nonzero"/><path fill="#ff66c4" d="M 19.601562 15.578125 C 19.414062 15.769531 19.21875 15.945312 18.996094 16.101562 C 18.769531 16.253906 18.507812 16.355469 18.289062 16.519531 C 18.25 16.546875 18.28125 16.613281 18.328125 16.605469 C 18.828125 16.5 19.40625 16.066406 19.65625 15.613281 C 19.671875 15.582031 19.628906 15.550781 19.601562 15.578125 Z M 19.601562 15.578125 " fill-opacity="1" fill-rule="nonzero"/><path fill="#ff66c4" d="M 19.089844 16.414062 C 18.867188 16.589844 18.601562 16.730469 18.34375 16.84375 C 18.125 16.941406 17.871094 16.964844 17.664062 17.085938 C 17.640625 17.097656 17.648438 17.140625 17.675781 17.144531 C 18.199219 17.234375 18.785156 16.8125 19.128906 16.453125 C 19.152344 16.425781 19.117188 16.394531 19.089844 16.414062 Z M 19.089844 16.414062 " fill-opacity="1" fill-rule="nonzero"/><path fill="#ff66c4" d="M 18.597656 16.964844 C 18.34375 17.214844 18.0625 17.375 17.71875 17.457031 C 17.464844 17.515625 17.203125 17.488281 16.949219 17.539062 C 16.910156 17.546875 16.90625 17.601562 16.945312 17.613281 C 17.125 17.664062 17.328125 17.675781 17.53125 17.648438 C 17.394531 17.6875 17.253906 17.71875 17.109375 17.738281 C 16.871094 17.769531 16.628906 17.734375 16.394531 17.773438 C 16.351562 17.78125 16.339844 17.855469 16.386719 17.871094 C 16.847656 18 17.503906 17.894531 17.882812 17.597656 C 17.890625 17.589844 17.890625 17.578125 17.890625 17.566406 C 18.203125 17.460938 18.488281 17.265625 18.652344 17.003906 C 18.675781 16.96875 18.625 16.941406 18.597656 16.964844 Z M 18.597656 16.964844 " fill-opacity="1" fill-rule="nonzero"/><path fill="#ff66c4" d="M 16.464844 18.101562 C 16.335938 18.109375 16.207031 18.113281 16.082031 18.113281 C 15.953125 18.109375 15.816406 18.058594 15.695312 18.097656 C 15.667969 18.105469 15.664062 18.140625 15.683594 18.160156 C 15.761719 18.238281 15.875 18.242188 15.980469 18.246094 C 16.152344 18.246094 16.316406 18.226562 16.472656 18.160156 C 16.503906 18.148438 16.5 18.097656 16.464844 18.101562 Z M 16.464844 18.101562 " fill-opacity="1" fill-rule="nonzero"/><path fill="#ff66c4" d="M 14.519531 19.699219 C 14.464844 19.53125 14.324219 19.390625 14.234375 19.238281 C 14.125 19.046875 14.050781 18.847656 13.964844 18.644531 C 13.957031 18.625 13.914062 18.632812 13.917969 18.65625 C 13.941406 18.882812 14.015625 19.117188 14.125 19.316406 C 14.207031 19.472656 14.304688 19.667969 14.476562 19.734375 C 14.5 19.746094 14.53125 19.726562 14.519531 19.699219 Z M 14.519531 19.699219 " fill-opacity="1" fill-rule="nonzero"/><path fill="#ff66c4" d="M 14.261719 19.898438 C 14.148438 19.707031 14.0625 19.507812 14.003906 19.296875 C 13.996094 19.257812 13.9375 19.269531 13.941406 19.308594 C 13.960938 19.519531 14.023438 19.726562 14.121094 19.914062 C 14.195312 20.054688 14.289062 20.273438 14.453125 20.324219 C 14.46875 20.328125 14.492188 20.3125 14.488281 20.292969 C 14.46875 20.144531 14.335938 20.023438 14.261719 19.898438 Z M 14.261719 19.898438 " fill-opacity="1" fill-rule="nonzero"/><path fill="#ff66c4" d="M 14.480469 20.902344 C 14.433594 20.746094 14.332031 20.609375 14.253906 20.46875 C 14.15625 20.296875 14.070312 20.125 14.007812 19.941406 C 13.992188 19.890625 13.925781 19.921875 13.9375 19.96875 C 14.015625 20.292969 14.152344 20.707031 14.390625 20.949219 C 14.425781 20.984375 14.496094 20.957031 14.480469 20.902344 Z M 14.480469 20.902344 " fill-opacity="1" fill-rule="nonzero"/><path fill="#ff66c4" d="M 14.285156 21.164062 C 14.164062 20.964844 14.066406 20.753906 14.003906 20.53125 C 13.996094 20.492188 13.933594 20.503906 13.9375 20.542969 C 13.96875 20.769531 14.03125 20.972656 14.128906 21.175781 C 14.195312 21.316406 14.292969 21.511719 14.445312 21.566406 C 14.46875 21.574219 14.503906 21.558594 14.496094 21.527344 C 14.46875 21.386719 14.359375 21.28125 14.285156 21.164062 Z M 14.285156 21.164062 " fill-opacity="1" fill-rule="nonzero"/><path fill="#ff66c4" d="M 14.164062 21.757812 C 14.074219 21.585938 14.003906 21.398438 13.945312 21.210938 C 13.929688 21.171875 13.875 21.191406 13.882812 21.230469 C 13.921875 21.433594 13.972656 21.640625 14.058594 21.828125 C 14.132812 21.976562 14.222656 22.1875 14.390625 22.238281 C 14.414062 22.246094 14.433594 22.222656 14.425781 22.203125 C 14.386719 22.042969 14.242188 21.902344 14.164062 21.757812 Z M 14.164062 21.757812 " fill-opacity="1" fill-rule="nonzero"/><path fill="#ff66c4" d="M 14.507812 22.820312 C 14.472656 22.671875 14.363281 22.546875 14.28125 22.421875 C 14.160156 22.246094 14.046875 22.066406 13.941406 21.882812 C 13.921875 21.847656 13.863281 21.875 13.878906 21.914062 C 13.957031 22.09375 14.042969 22.265625 14.136719 22.4375 C 14.21875 22.582031 14.296875 22.769531 14.433594 22.867188 C 14.464844 22.894531 14.515625 22.863281 14.507812 22.820312 Z M 14.507812 22.820312 " fill-opacity="1" fill-rule="nonzero"/><path fill="#ff66c4" d="M 14.191406 22.960938 C 14.132812 22.863281 14.09375 22.753906 14.027344 22.660156 C 14.011719 22.636719 13.972656 22.644531 13.972656 22.675781 C 13.980469 22.785156 14.019531 22.898438 14.070312 23 C 14.113281 23.09375 14.179688 23.253906 14.292969 23.277344 C 14.328125 23.285156 14.363281 23.261719 14.355469 23.21875 C 14.339844 23.125 14.242188 23.042969 14.191406 22.960938 Z M 14.191406 22.960938 " fill-opacity="1" fill-rule="nonzero"/><path fill="#ff66c4" d="M 15.902344 18.371094 C 15.894531 18.328125 15.828125 18.320312 15.816406 18.363281 C 15.734375 18.628906 15.679688 18.875 15.535156 19.117188 C 15.4375 19.289062 15.292969 19.425781 15.1875 19.589844 C 15.171875 19.621094 15.195312 19.671875 15.234375 19.652344 C 15.65625 19.457031 15.957031 18.832031 15.902344 18.371094 Z M 15.902344 18.371094 " fill-opacity="1" fill-rule="nonzero"/><path fill="#ff66c4" d="M 15.855469 18.980469 C 15.757812 19.214844 15.664062 19.441406 15.539062 19.660156 C 15.421875 19.867188 15.25 20.058594 15.183594 20.289062 C 15.171875 20.320312 15.214844 20.339844 15.238281 20.324219 C 15.609375 20.089844 15.863281 19.429688 15.921875 19.003906 C 15.929688 18.964844 15.871094 18.941406 15.855469 18.980469 Z M 15.855469 18.980469 " fill-opacity="1" fill-rule="nonzero"/><path fill="#ff66c4" d="M 15.902344 19.710938 C 15.789062 19.925781 15.667969 20.136719 15.535156 20.34375 C 15.433594 20.496094 15.296875 20.636719 15.242188 20.8125 C 15.234375 20.847656 15.277344 20.867188 15.300781 20.851562 C 15.480469 20.75 15.589844 20.523438 15.691406 20.351562 C 15.804688 20.164062 15.902344 19.96875 15.992188 19.769531 C 16.023438 19.707031 15.9375 19.648438 15.902344 19.710938 Z M 15.902344 19.710938 " fill-opacity="1" fill-rule="nonzero"/><path fill="#ff66c4" d="M 15.875 20.320312 C 15.824219 20.585938 15.703125 20.832031 15.5625 21.0625 C 15.46875 21.214844 15.320312 21.34375 15.261719 21.515625 C 15.246094 21.558594 15.292969 21.597656 15.332031 21.578125 C 15.535156 21.476562 15.667969 21.214844 15.769531 21.019531 C 15.882812 20.804688 15.933594 20.574219 15.960938 20.332031 C 15.964844 20.277344 15.886719 20.265625 15.875 20.320312 Z M 15.875 20.320312 " fill-opacity="1" fill-rule="nonzero"/><path fill="#ff66c4" d="M 15.953125 21.019531 C 15.882812 21.203125 15.789062 21.371094 15.683594 21.535156 C 15.585938 21.691406 15.4375 21.832031 15.386719 22.007812 C 15.378906 22.046875 15.414062 22.089844 15.453125 22.070312 C 15.617188 21.976562 15.71875 21.785156 15.8125 21.628906 C 15.925781 21.449219 16.003906 21.253906 16.066406 21.050781 C 16.085938 20.976562 15.980469 20.953125 15.953125 21.019531 Z M 15.953125 21.019531 " fill-opacity="1" fill-rule="nonzero"/><path fill="#ff66c4" d="M 16 21.546875 C 15.921875 21.777344 15.804688 22 15.671875 22.203125 C 15.558594 22.382812 15.386719 22.527344 15.296875 22.71875 C 15.277344 22.757812 15.324219 22.796875 15.359375 22.78125 C 15.757812 22.574219 15.976562 21.980469 16.082031 21.566406 C 16.09375 21.519531 16.015625 21.5 16 21.546875 Z M 16 21.546875 " fill-opacity="1" fill-rule="nonzero"/><path fill="#ff66c4" d="M 15.980469 22.371094 C 15.890625 22.496094 15.796875 22.613281 15.699219 22.734375 C 15.613281 22.835938 15.457031 22.9375 15.421875 23.070312 C 15.417969 23.09375 15.445312 23.117188 15.46875 23.117188 C 15.59375 23.097656 15.683594 22.949219 15.761719 22.855469 C 15.875 22.71875 15.957031 22.570312 16.042969 22.410156 C 16.0625 22.375 16.007812 22.335938 15.980469 22.371094 Z M 15.980469 22.371094 " fill-opacity="1" fill-rule="nonzero"/><path fill="#ff66c4" d="M 15.890625 23.101562 C 15.875 23.117188 15.859375 23.132812 15.839844 23.144531 C 15.816406 23.15625 15.792969 23.160156 15.773438 23.1875 C 15.765625 23.195312 15.769531 23.210938 15.777344 23.21875 C 15.832031 23.273438 15.90625 23.214844 15.949219 23.175781 C 15.988281 23.132812 15.929688 23.058594 15.890625 23.101562 Z M 15.890625 23.101562 " fill-opacity="1" fill-rule="nonzero"/><path fill="#ff66c4" d="M 15.925781 23.765625 C 15.417969 23.664062 14.882812 23.6875 14.367188 23.6875 C 13.890625 23.683594 13.414062 23.683594 12.9375 23.71875 C 13.003906 23.652344 13.078125 23.59375 13.15625 23.550781 C 13.171875 23.542969 13.164062 23.523438 13.148438 23.527344 C 13.011719 23.570312 12.902344 23.636719 12.820312 23.726562 C 12.800781 23.730469 12.792969 23.742188 12.792969 23.753906 C 12.699219 23.867188 12.640625 24.007812 12.621094 24.175781 C 12.59375 24.449219 12.761719 24.800781 13.023438 24.898438 C 13.046875 24.90625 13.070312 24.871094 13.054688 24.851562 C 13.03125 24.816406 13.007812 24.785156 12.980469 24.75 C 13.042969 24.757812 13.105469 24.761719 13.167969 24.769531 C 13.242188 24.832031 13.332031 24.875 13.425781 24.867188 C 13.460938 24.863281 13.464844 24.828125 13.441406 24.808594 C 13.429688 24.800781 13.414062 24.792969 13.402344 24.78125 C 13.441406 24.785156 13.476562 24.785156 13.515625 24.785156 C 13.570312 24.832031 13.628906 24.867188 13.691406 24.871094 C 13.722656 24.875 13.75 24.84375 13.730469 24.816406 C 13.722656 24.804688 13.714844 24.796875 13.703125 24.789062 C 13.757812 24.789062 13.8125 24.785156 13.863281 24.785156 C 13.886719 24.792969 13.910156 24.804688 13.9375 24.808594 C 13.957031 24.8125 13.972656 24.796875 13.972656 24.777344 C 14.007812 24.773438 14.039062 24.769531 14.070312 24.769531 C 14.09375 24.765625 14.09375 24.726562 14.070312 24.722656 C 14.015625 24.707031 13.957031 24.695312 13.898438 24.6875 C 13.859375 24.648438 13.820312 24.609375 13.796875 24.5625 C 13.78125 24.53125 13.773438 24.5 13.769531 24.464844 C 13.964844 24.449219 14.15625 24.414062 14.316406 24.359375 C 14.332031 24.351562 14.324219 24.324219 14.308594 24.324219 C 14.125 24.3125 13.945312 24.332031 13.761719 24.339844 C 13.765625 24.304688 13.707031 24.300781 13.699219 24.335938 C 13.699219 24.339844 13.699219 24.339844 13.699219 24.34375 C 13.605469 24.347656 13.511719 24.34375 13.417969 24.339844 C 13.417969 24.257812 13.429688 24.175781 13.445312 24.097656 C 13.523438 24.09375 13.597656 24.089844 13.671875 24.089844 C 13.972656 24.085938 14.292969 24.097656 14.585938 24.023438 C 14.605469 24.015625 14.605469 23.984375 14.582031 23.984375 C 14.28125 23.9375 13.96875 23.964844 13.667969 23.96875 C 13.496094 23.972656 13.304688 23.953125 13.125 23.964844 C 13.140625 23.90625 13.164062 23.855469 13.1875 23.804688 C 13.582031 23.820312 13.976562 23.808594 14.371094 23.808594 C 14.882812 23.808594 15.40625 23.855469 15.917969 23.808594 C 15.941406 23.808594 15.953125 23.769531 15.925781 23.765625 Z M 13.6875 24.46875 C 13.6875 24.539062 13.707031 24.609375 13.742188 24.667969 C 13.679688 24.660156 13.621094 24.65625 13.558594 24.652344 C 13.527344 24.621094 13.496094 24.589844 13.472656 24.546875 C 13.457031 24.523438 13.449219 24.496094 13.441406 24.46875 C 13.523438 24.472656 13.605469 24.472656 13.6875 24.46875 Z M 13.238281 24.65625 C 13.1875 24.609375 13.144531 24.554688 13.113281 24.472656 C 13.105469 24.457031 13.101562 24.4375 13.097656 24.421875 C 13.171875 24.441406 13.253906 24.453125 13.335938 24.460938 C 13.339844 24.492188 13.347656 24.523438 13.359375 24.554688 C 13.367188 24.585938 13.382812 24.621094 13.402344 24.652344 C 13.347656 24.652344 13.292969 24.65625 13.238281 24.65625 Z M 13.402344 24.101562 C 13.363281 24.175781 13.339844 24.253906 13.332031 24.335938 C 13.246094 24.332031 13.164062 24.328125 13.078125 24.320312 C 13.070312 24.25 13.074219 24.175781 13.089844 24.101562 C 13.191406 24.109375 13.296875 24.105469 13.402344 24.101562 Z M 13.050781 23.96875 C 12.976562 23.976562 12.910156 23.988281 12.84375 24.007812 C 12.820312 24.015625 12.816406 24.050781 12.84375 24.058594 C 12.894531 24.074219 12.945312 24.085938 13.003906 24.09375 C 12.980469 24.164062 12.96875 24.238281 12.972656 24.316406 C 12.960938 24.316406 12.949219 24.316406 12.941406 24.316406 C 12.90625 24.3125 12.90625 24.359375 12.933594 24.371094 C 12.949219 24.375 12.964844 24.378906 12.976562 24.382812 C 12.984375 24.421875 12.992188 24.460938 13 24.503906 C 13.019531 24.558594 13.046875 24.613281 13.082031 24.667969 C 13.03125 24.671875 12.976562 24.675781 12.925781 24.679688 C 12.847656 24.578125 12.78125 24.476562 12.746094 24.332031 C 12.703125 24.132812 12.761719 23.941406 12.878906 23.789062 C 12.972656 23.796875 13.0625 23.800781 13.152344 23.804688 C 13.113281 23.855469 13.078125 23.910156 13.050781 23.96875 Z M 13.050781 23.96875 " fill-opacity="1" fill-rule="nonzero"/><g clip-path="url(#id18)"><path fill="#ff66c4" d="M 15.550781 3.996094 C 15.539062 3.882812 15.382812 3.898438 15.375 4 C 15.367188 3.996094 15.359375 3.996094 15.351562 4.003906 C 15.175781 4.183594 14.996094 4.359375 14.824219 4.542969 C 14.695312 4.675781 14.546875 4.820312 14.445312 4.980469 C 14.425781 4.910156 14.414062 4.84375 14.40625 4.773438 C 14.410156 4.769531 14.410156 4.773438 14.410156 4.769531 C 14.554688 4.675781 14.664062 4.511719 14.789062 4.394531 C 14.9375 4.246094 15.089844 4.101562 15.234375 3.949219 C 15.257812 3.925781 15.226562 3.886719 15.203125 3.910156 C 15.054688 4.035156 14.90625 4.160156 14.761719 4.289062 C 14.640625 4.398438 14.484375 4.527344 14.398438 4.675781 C 14.394531 4.632812 14.390625 4.589844 14.390625 4.546875 C 14.488281 4.484375 14.558594 4.34375 14.628906 4.253906 C 14.707031 4.148438 14.789062 4.039062 14.875 3.9375 C 14.886719 3.925781 14.867188 3.90625 14.855469 3.917969 C 14.757812 4.007812 14.660156 4.09375 14.566406 4.195312 C 14.511719 4.257812 14.433594 4.335938 14.382812 4.417969 C 14.375 4.300781 14.367188 4.183594 14.34375 4.070312 C 14.332031 4.015625 14.25 4 14.230469 4.058594 C 14.117188 4.40625 14.226562 4.875 14.328125 5.21875 C 14.398438 5.464844 14.527344 5.789062 14.777344 5.902344 C 15.003906 6.003906 15.179688 5.78125 15.28125 5.605469 C 15.550781 5.125 15.59375 4.53125 15.550781 3.996094 Z M 14.855469 5.734375 C 14.921875 5.671875 14.972656 5.59375 15.027344 5.523438 C 15.09375 5.4375 15.164062 5.351562 15.234375 5.265625 C 15.222656 5.304688 15.207031 5.34375 15.195312 5.378906 C 15.132812 5.535156 15.015625 5.769531 14.855469 5.734375 Z M 15.257812 5.199219 C 15.246094 5.191406 15.230469 5.1875 15.21875 5.199219 C 15.136719 5.289062 15.054688 5.386719 14.976562 5.480469 C 14.917969 5.554688 14.847656 5.628906 14.804688 5.714844 C 14.789062 5.703125 14.769531 5.691406 14.753906 5.675781 C 14.726562 5.648438 14.699219 5.617188 14.675781 5.585938 C 14.820312 5.460938 14.9375 5.289062 15.054688 5.144531 C 15.164062 5.015625 15.261719 4.886719 15.351562 4.746094 C 15.332031 4.898438 15.300781 5.046875 15.257812 5.199219 Z M 15.363281 4.632812 C 15.242188 4.78125 15.113281 4.929688 14.984375 5.082031 C 14.867188 5.21875 14.722656 5.355469 14.628906 5.511719 C 14.597656 5.457031 14.570312 5.398438 14.546875 5.335938 C 14.550781 5.335938 14.554688 5.332031 14.5625 5.332031 C 14.714844 5.230469 14.824219 5.039062 14.941406 4.898438 C 15.09375 4.710938 15.242188 4.527344 15.375 4.324219 C 15.394531 4.292969 15.347656 4.261719 15.324219 4.292969 C 15.191406 4.457031 15.050781 4.617188 14.910156 4.777344 C 14.78125 4.929688 14.59375 5.097656 14.53125 5.292969 C 14.507812 5.21875 14.484375 5.144531 14.46875 5.078125 C 14.625 4.941406 14.757812 4.761719 14.898438 4.605469 C 15.058594 4.425781 15.222656 4.246094 15.375 4.054688 C 15.382812 4.253906 15.382812 4.445312 15.363281 4.632812 Z M 15.363281 4.632812 " fill-opacity="1" fill-rule="nonzero"/></g><path fill="#ff66c4" d="M 17.101562 4.554688 C 17.078125 4.464844 16.964844 4.496094 16.957031 4.574219 C 16.949219 4.617188 16.945312 4.660156 16.941406 4.703125 C 16.828125 4.828125 16.714844 4.953125 16.601562 5.082031 C 16.484375 5.214844 16.351562 5.339844 16.242188 5.480469 C 16.21875 5.441406 16.195312 5.398438 16.179688 5.355469 C 16.183594 5.359375 16.195312 5.363281 16.203125 5.355469 C 16.34375 5.265625 16.449219 5.09375 16.558594 4.960938 C 16.671875 4.828125 16.777344 4.683594 16.863281 4.53125 C 16.878906 4.503906 16.84375 4.476562 16.824219 4.503906 C 16.714844 4.640625 16.601562 4.769531 16.488281 4.898438 C 16.378906 5.023438 16.222656 5.160156 16.164062 5.320312 C 16.140625 5.257812 16.117188 5.1875 16.097656 5.121094 C 16.203125 5.046875 16.28125 4.921875 16.363281 4.820312 C 16.472656 4.691406 16.570312 4.558594 16.660156 4.417969 C 16.683594 4.386719 16.636719 4.355469 16.613281 4.386719 C 16.515625 4.515625 16.40625 4.636719 16.300781 4.761719 C 16.222656 4.847656 16.128906 4.9375 16.074219 5.046875 C 16.0625 4.992188 16.046875 4.941406 16.035156 4.890625 C 16.035156 4.882812 16.035156 4.875 16.03125 4.871094 C 16.113281 4.828125 16.175781 4.730469 16.234375 4.664062 C 16.324219 4.5625 16.40625 4.457031 16.492188 4.351562 C 16.519531 4.316406 16.476562 4.269531 16.445312 4.300781 C 16.359375 4.390625 16.273438 4.480469 16.191406 4.574219 C 16.136719 4.632812 16.0625 4.699219 16.015625 4.773438 C 16.003906 4.699219 15.992188 4.621094 15.984375 4.546875 C 15.992188 4.535156 15.996094 4.523438 16.003906 4.515625 C 16.046875 4.449219 16.09375 4.382812 16.148438 4.328125 C 16.171875 4.304688 16.140625 4.265625 16.117188 4.289062 C 16.070312 4.335938 16.023438 4.390625 15.980469 4.445312 C 15.980469 4.449219 15.976562 4.449219 15.976562 4.453125 C 15.960938 4.339844 15.945312 4.230469 15.914062 4.128906 C 15.902344 4.09375 15.847656 4.085938 15.828125 4.125 C 15.722656 4.363281 15.832031 4.75 15.886719 4.988281 C 15.949219 5.253906 16.039062 5.582031 16.238281 5.777344 C 16.402344 5.933594 16.609375 5.914062 16.761719 5.75 C 17.039062 5.449219 17.203125 4.960938 17.101562 4.554688 Z M 16.289062 5.554688 C 16.410156 5.449219 16.515625 5.316406 16.621094 5.199219 C 16.726562 5.078125 16.828125 4.957031 16.925781 4.832031 C 16.921875 4.886719 16.914062 4.9375 16.90625 4.988281 C 16.816406 5.078125 16.726562 5.167969 16.644531 5.265625 C 16.542969 5.378906 16.421875 5.496094 16.347656 5.628906 C 16.332031 5.617188 16.320312 5.601562 16.308594 5.585938 C 16.300781 5.574219 16.292969 5.566406 16.289062 5.554688 Z M 16.726562 5.496094 C 16.636719 5.640625 16.53125 5.734375 16.417969 5.683594 C 16.515625 5.589844 16.589844 5.472656 16.671875 5.371094 C 16.742188 5.289062 16.8125 5.203125 16.878906 5.117188 C 16.851562 5.246094 16.804688 5.367188 16.726562 5.496094 Z M 16.726562 5.496094 " fill-opacity="1" fill-rule="nonzero"/><path fill="#ff66c4" d="M 13.425781 14.304688 C 12.929688 14.460938 12.84375 15.277344 12.957031 15.695312 C 12.96875 15.742188 13.042969 15.742188 13.042969 15.691406 C 13.039062 15.605469 13.035156 15.519531 13.035156 15.433594 C 13.039062 15.433594 13.042969 15.433594 13.046875 15.429688 C 13.210938 15.324219 13.328125 15.125 13.453125 14.972656 C 13.546875 14.859375 13.640625 14.746094 13.734375 14.628906 C 13.75 14.65625 13.761719 14.6875 13.773438 14.714844 C 13.664062 14.835938 13.558594 14.964844 13.453125 15.085938 C 13.328125 15.234375 13.132812 15.398438 13.082031 15.589844 C 13.074219 15.613281 13.101562 15.636719 13.125 15.625 C 13.28125 15.535156 13.386719 15.347656 13.503906 15.210938 C 13.609375 15.085938 13.71875 14.957031 13.808594 14.816406 C 13.816406 14.835938 13.820312 14.855469 13.824219 14.871094 C 13.835938 14.914062 13.84375 14.953125 13.851562 14.996094 C 13.71875 15.105469 13.609375 15.234375 13.5 15.363281 C 13.390625 15.488281 13.25 15.621094 13.191406 15.777344 C 13.179688 15.804688 13.214844 15.832031 13.238281 15.816406 C 13.375 15.722656 13.472656 15.558594 13.578125 15.429688 C 13.675781 15.304688 13.777344 15.183594 13.859375 15.046875 C 13.867188 15.101562 13.871094 15.15625 13.875 15.210938 C 13.875 15.214844 13.875 15.214844 13.875 15.214844 C 13.761719 15.324219 13.65625 15.441406 13.5625 15.566406 C 13.480469 15.671875 13.351562 15.800781 13.339844 15.9375 C 13.339844 15.960938 13.367188 15.976562 13.386719 15.964844 C 13.5 15.894531 13.566406 15.742188 13.644531 15.632812 C 13.722656 15.527344 13.800781 15.421875 13.878906 15.3125 C 13.878906 15.390625 13.875 15.464844 13.871094 15.542969 C 13.863281 15.625 13.855469 15.710938 13.847656 15.792969 C 13.839844 15.851562 13.8125 15.914062 13.828125 15.972656 C 13.859375 16.074219 13.960938 16 13.96875 15.929688 C 13.984375 15.785156 13.988281 15.625 13.988281 15.480469 C 13.988281 15.164062 14.027344 14.117188 13.425781 14.304688 Z M 13.390625 14.914062 C 13.273438 15.050781 13.128906 15.1875 13.039062 15.34375 C 13.042969 15.28125 13.046875 15.21875 13.058594 15.15625 C 13.097656 14.925781 13.195312 14.597656 13.425781 14.488281 C 13.476562 14.464844 13.519531 14.460938 13.5625 14.46875 C 13.472656 14.554688 13.386719 14.640625 13.304688 14.738281 C 13.226562 14.832031 13.125 14.941406 13.09375 15.0625 C 13.09375 15.078125 13.109375 15.082031 13.117188 15.078125 C 13.222656 15.015625 13.292969 14.890625 13.363281 14.792969 C 13.441406 14.6875 13.519531 14.585938 13.601562 14.484375 C 13.640625 14.503906 13.671875 14.535156 13.699219 14.578125 C 13.589844 14.679688 13.488281 14.796875 13.390625 14.914062 Z M 13.390625 14.914062 " fill-opacity="1" fill-rule="nonzero"/><path fill="#ff66c4" d="M 15.28125 14.558594 C 15.179688 14.382812 15.003906 14.160156 14.777344 14.265625 C 14.527344 14.378906 14.398438 14.699219 14.328125 14.945312 C 14.226562 15.289062 14.117188 15.757812 14.230469 16.109375 C 14.25 16.164062 14.332031 16.152344 14.34375 16.097656 C 14.363281 16 14.371094 15.90625 14.375 15.808594 C 14.523438 15.691406 14.636719 15.527344 14.757812 15.386719 C 14.914062 15.203125 15.085938 15.011719 15.195312 14.792969 C 15.21875 14.851562 15.238281 14.910156 15.257812 14.96875 C 15.089844 15.117188 14.9375 15.28125 14.796875 15.453125 C 14.640625 15.636719 14.4375 15.832031 14.355469 16.0625 C 14.34375 16.089844 14.375 16.105469 14.394531 16.089844 C 14.574219 15.964844 14.699219 15.753906 14.835938 15.585938 C 14.980469 15.40625 15.136719 15.230469 15.277344 15.042969 C 15.292969 15.097656 15.304688 15.15625 15.316406 15.210938 C 15.179688 15.359375 15.046875 15.511719 14.921875 15.667969 C 14.785156 15.832031 14.617188 15.992188 14.539062 16.195312 C 14.53125 16.222656 14.5625 16.238281 14.582031 16.222656 C 14.757812 16.101562 14.882812 15.90625 15.015625 15.738281 C 15.128906 15.597656 15.238281 15.453125 15.335938 15.300781 C 15.351562 15.394531 15.359375 15.488281 15.367188 15.585938 C 15.300781 15.667969 15.238281 15.75 15.171875 15.832031 C 15.085938 15.941406 14.976562 16.046875 14.925781 16.175781 C 14.917969 16.203125 14.949219 16.226562 14.972656 16.214844 C 15.089844 16.140625 15.167969 16.007812 15.25 15.894531 C 15.292969 15.835938 15.335938 15.777344 15.378906 15.71875 C 15.378906 15.78125 15.378906 15.84375 15.378906 15.910156 C 15.351562 15.945312 15.324219 15.980469 15.296875 16.011719 C 15.265625 16.046875 15.230469 16.078125 15.21875 16.121094 C 15.214844 16.136719 15.222656 16.15625 15.242188 16.148438 C 15.289062 16.136719 15.316406 16.09375 15.347656 16.054688 C 15.359375 16.042969 15.367188 16.027344 15.378906 16.015625 C 15.375 16.058594 15.375 16.105469 15.375 16.152344 C 15.367188 16.265625 15.539062 16.289062 15.550781 16.171875 C 15.59375 15.632812 15.550781 15.039062 15.28125 14.558594 Z M 14.753906 14.492188 C 14.816406 14.433594 14.875 14.417969 14.929688 14.433594 C 14.820312 14.515625 14.734375 14.625 14.648438 14.726562 C 14.613281 14.765625 14.574219 14.808594 14.539062 14.851562 C 14.589844 14.714844 14.652344 14.582031 14.753906 14.492188 Z M 14.449219 15.160156 C 14.453125 15.140625 14.460938 15.117188 14.464844 15.097656 C 14.550781 15.023438 14.617188 14.914062 14.683594 14.828125 C 14.777344 14.703125 14.886719 14.585938 14.976562 14.453125 C 15.015625 14.476562 15.046875 14.515625 15.078125 14.558594 C 14.957031 14.683594 14.835938 14.8125 14.714844 14.941406 C 14.628906 15.035156 14.515625 15.132812 14.433594 15.242188 C 14.4375 15.214844 14.441406 15.1875 14.449219 15.160156 Z M 15.164062 14.742188 C 15 14.898438 14.855469 15.085938 14.707031 15.257812 C 14.609375 15.375 14.484375 15.492188 14.390625 15.621094 C 14.394531 15.550781 14.398438 15.480469 14.40625 15.40625 C 14.539062 15.316406 14.640625 15.167969 14.746094 15.046875 C 14.871094 14.902344 14.992188 14.753906 15.101562 14.59375 C 15.128906 14.640625 15.152344 14.691406 15.171875 14.738281 C 15.171875 14.738281 15.167969 14.738281 15.164062 14.742188 Z M 15.164062 14.742188 " fill-opacity="1" fill-rule="nonzero"/><path fill="#ff66c4" d="M 16.761719 14.417969 C 16.609375 14.25 16.402344 14.230469 16.238281 14.390625 C 16.039062 14.585938 15.949219 14.910156 15.886719 15.175781 C 15.832031 15.417969 15.722656 15.804688 15.828125 16.042969 C 15.847656 16.078125 15.902344 16.074219 15.914062 16.035156 C 15.929688 15.984375 15.941406 15.925781 15.953125 15.871094 C 16.292969 15.601562 16.558594 15.1875 16.808594 14.835938 C 16.832031 14.886719 16.847656 14.9375 16.863281 14.988281 C 16.71875 15.140625 16.589844 15.296875 16.457031 15.460938 C 16.332031 15.617188 16.199219 15.765625 16.109375 15.949219 C 16.097656 15.972656 16.132812 15.988281 16.148438 15.976562 C 16.4375 15.742188 16.675781 15.390625 16.882812 15.070312 C 16.898438 15.128906 16.90625 15.183594 16.914062 15.242188 C 16.90625 15.242188 16.902344 15.246094 16.894531 15.25 C 16.835938 15.316406 16.777344 15.386719 16.71875 15.453125 C 16.660156 15.523438 16.582031 15.59375 16.558594 15.683594 C 16.550781 15.703125 16.570312 15.726562 16.59375 15.714844 C 16.65625 15.683594 16.703125 15.621094 16.746094 15.5625 C 16.804688 15.480469 16.863281 15.398438 16.925781 15.320312 C 16.9375 15.40625 16.945312 15.496094 16.957031 15.59375 C 16.964844 15.671875 17.078125 15.699219 17.101562 15.613281 C 17.203125 15.203125 17.039062 14.71875 16.761719 14.417969 Z M 16.308594 14.578125 C 16.371094 14.496094 16.429688 14.464844 16.492188 14.46875 C 16.394531 14.585938 16.300781 14.707031 16.203125 14.820312 C 16.183594 14.839844 16.167969 14.859375 16.152344 14.878906 C 16.191406 14.769531 16.242188 14.667969 16.308594 14.578125 Z M 15.972656 15.746094 C 15.980469 15.660156 15.988281 15.570312 16 15.484375 C 16.109375 15.375 16.207031 15.246094 16.308594 15.128906 C 16.441406 14.972656 16.570312 14.820312 16.695312 14.664062 C 16.710938 14.640625 16.679688 14.609375 16.660156 14.628906 C 16.460938 14.832031 16.214844 15.046875 16.035156 15.289062 C 16.035156 15.285156 16.035156 15.28125 16.035156 15.277344 C 16.046875 15.230469 16.058594 15.183594 16.070312 15.132812 C 16.160156 15.042969 16.242188 14.9375 16.316406 14.84375 C 16.40625 14.734375 16.496094 14.621094 16.5625 14.492188 C 16.621094 14.523438 16.675781 14.589844 16.726562 14.667969 C 16.75 14.707031 16.769531 14.746094 16.789062 14.785156 C 16.511719 15.074219 16.191406 15.398438 15.972656 15.746094 Z M 15.972656 15.746094 " fill-opacity="1" fill-rule="nonzero"/><path fill="#ff66c4" d="M 13.523438 7.195312 C 13.527344 7.183594 13.535156 7.175781 13.542969 7.167969 C 13.558594 7.144531 13.523438 7.113281 13.503906 7.132812 C 13.496094 7.140625 13.492188 7.148438 13.484375 7.15625 C 13.351562 7.03125 13.175781 6.945312 13.027344 6.917969 C 12.636719 6.851562 12.042969 6.835938 11.671875 6.988281 C 11.632812 7.007812 11.625 7.070312 11.671875 7.089844 C 11.765625 7.125 11.882812 7.136719 12.003906 7.136719 C 11.929688 7.222656 11.855469 7.308594 11.78125 7.394531 C 11.695312 7.503906 11.574219 7.621094 11.527344 7.753906 C 11.519531 7.769531 11.539062 7.785156 11.554688 7.773438 C 11.65625 7.695312 11.726562 7.570312 11.804688 7.464844 C 11.890625 7.359375 11.96875 7.246094 12.050781 7.136719 C 12.128906 7.132812 12.203125 7.128906 12.285156 7.121094 C 12.074219 7.375 11.859375 7.628906 11.679688 7.902344 C 11.667969 7.921875 11.691406 7.9375 11.703125 7.921875 C 11.941406 7.679688 12.164062 7.402344 12.355469 7.113281 C 12.546875 7.097656 12.746094 7.078125 12.921875 7.097656 C 12.78125 7.25 12.640625 7.398438 12.503906 7.554688 C 12.367188 7.707031 12.203125 7.863281 12.109375 8.046875 C 12.027344 8.046875 11.953125 8.046875 11.894531 8.050781 C 12.019531 7.921875 12.125 7.765625 12.238281 7.628906 C 12.367188 7.46875 12.503906 7.308594 12.640625 7.152344 C 12.664062 7.128906 12.632812 7.089844 12.609375 7.113281 C 12.464844 7.265625 12.320312 7.417969 12.183594 7.574219 C 12.050781 7.71875 11.90625 7.875 11.8125 8.050781 C 11.769531 8.050781 11.734375 8.050781 11.714844 8.050781 C 11.578125 8.058594 11.570312 8.277344 11.707031 8.269531 C 12.183594 8.234375 13.625 8.378906 13.691406 7.617188 C 13.703125 7.457031 13.632812 7.3125 13.523438 7.195312 Z M 12.199219 8.042969 C 12.316406 7.929688 12.414062 7.789062 12.519531 7.667969 C 12.675781 7.484375 12.832031 7.296875 12.984375 7.113281 C 12.984375 7.109375 12.984375 7.109375 12.984375 7.105469 C 13.054688 7.117188 13.121094 7.136719 13.179688 7.167969 C 13.0625 7.3125 12.945312 7.460938 12.828125 7.613281 C 12.726562 7.75 12.59375 7.878906 12.511719 8.03125 C 12.402344 8.039062 12.296875 8.042969 12.199219 8.042969 Z M 12.628906 8.019531 C 12.730469 7.917969 12.8125 7.789062 12.898438 7.675781 C 13.015625 7.519531 13.121094 7.355469 13.234375 7.195312 C 13.277344 7.21875 13.316406 7.253906 13.347656 7.292969 C 13.269531 7.378906 13.1875 7.464844 13.109375 7.554688 C 13 7.683594 12.859375 7.820312 12.796875 7.980469 C 12.792969 7.988281 12.796875 7.996094 12.796875 8 C 12.742188 8.007812 12.6875 8.015625 12.628906 8.019531 Z M 13.148438 7.671875 C 13.230469 7.566406 13.3125 7.460938 13.394531 7.355469 C 13.421875 7.394531 13.441406 7.445312 13.460938 7.5 C 13.402344 7.558594 13.347656 7.617188 13.292969 7.679688 C 13.222656 7.761719 13.140625 7.847656 13.089844 7.945312 C 13.027344 7.960938 12.953125 7.976562 12.882812 7.988281 C 12.984375 7.902344 13.0625 7.777344 13.148438 7.671875 Z M 13.253906 7.890625 C 13.28125 7.855469 13.3125 7.816406 13.339844 7.78125 C 13.386719 7.71875 13.4375 7.65625 13.488281 7.59375 C 13.511719 7.730469 13.414062 7.824219 13.253906 7.890625 Z M 13.253906 7.890625 " fill-opacity="1" fill-rule="nonzero"/><path fill="#ff66c4" d="M 13.027344 8.664062 C 12.636719 8.597656 12.042969 8.582031 11.671875 8.734375 C 11.632812 8.753906 11.625 8.816406 11.671875 8.835938 C 11.722656 8.855469 11.78125 8.867188 11.84375 8.875 C 11.808594 8.921875 11.773438 8.972656 11.75 9.015625 C 11.644531 9.171875 11.550781 9.328125 11.472656 9.5 C 11.464844 9.519531 11.488281 9.527344 11.5 9.515625 C 11.59375 9.40625 11.675781 9.289062 11.753906 9.164062 C 11.808594 9.078125 11.894531 8.980469 11.949219 8.882812 C 12.015625 8.882812 12.085938 8.878906 12.15625 8.875 C 12.039062 9.03125 11.925781 9.195312 11.8125 9.359375 C 11.710938 9.5 11.589844 9.648438 11.535156 9.820312 C 11.527344 9.84375 11.558594 9.867188 11.578125 9.847656 C 11.71875 9.710938 11.820312 9.511719 11.925781 9.347656 C 12.027344 9.191406 12.125 9.039062 12.207031 8.871094 C 12.375 8.859375 12.554688 8.839844 12.722656 8.835938 C 12.617188 8.992188 12.503906 9.136719 12.394531 9.285156 C 12.296875 9.421875 12.15625 9.578125 12.128906 9.75 C 12.125 9.777344 12.160156 9.789062 12.175781 9.773438 C 12.304688 9.660156 12.371094 9.488281 12.46875 9.347656 C 12.574219 9.1875 12.683594 9.027344 12.78125 8.859375 C 12.789062 8.851562 12.789062 8.84375 12.785156 8.835938 C 12.855469 8.835938 12.921875 8.839844 12.984375 8.851562 C 12.875 9.015625 12.75 9.171875 12.628906 9.328125 C 12.53125 9.457031 12.394531 9.617188 12.371094 9.785156 C 12.1875 9.792969 12.015625 9.792969 11.894531 9.792969 C 12.015625 9.671875 12.097656 9.507812 12.191406 9.363281 C 12.289062 9.214844 12.382812 9.066406 12.480469 8.914062 C 12.496094 8.886719 12.457031 8.855469 12.433594 8.882812 C 12.328125 9.027344 12.222656 9.171875 12.117188 9.316406 C 12.015625 9.460938 11.886719 9.609375 11.835938 9.78125 C 11.832031 9.785156 11.832031 9.789062 11.835938 9.792969 C 11.777344 9.792969 11.738281 9.796875 11.714844 9.796875 C 11.578125 9.804688 11.570312 10.023438 11.707031 10.011719 C 12.183594 9.976562 13.625 10.125 13.691406 9.363281 C 13.722656 9.007812 13.324219 8.714844 13.027344 8.664062 Z M 12.480469 9.777344 C 12.585938 9.652344 12.667969 9.476562 12.753906 9.34375 C 12.859375 9.1875 12.957031 9.03125 13.042969 8.863281 C 13.097656 8.875 13.152344 8.894531 13.199219 8.921875 C 13.097656 9.0625 12.996094 9.199219 12.898438 9.339844 C 12.808594 9.464844 12.699219 9.613281 12.648438 9.765625 C 12.59375 9.769531 12.535156 9.773438 12.480469 9.777344 Z M 12.953125 9.46875 C 13.0625 9.300781 13.164062 9.128906 13.253906 8.953125 C 13.300781 8.984375 13.339844 9.027344 13.375 9.074219 C 13.308594 9.179688 13.246094 9.285156 13.1875 9.394531 C 13.136719 9.484375 13.046875 9.585938 13.050781 9.695312 C 13.050781 9.695312 13.050781 9.699219 13.050781 9.699219 C 12.96875 9.71875 12.878906 9.738281 12.785156 9.75 C 12.847656 9.660156 12.898438 9.558594 12.953125 9.46875 Z M 13.132812 9.679688 C 13.191406 9.625 13.222656 9.546875 13.261719 9.476562 C 13.320312 9.359375 13.367188 9.242188 13.40625 9.117188 C 13.4375 9.175781 13.464844 9.242188 13.484375 9.324219 C 13.523438 9.5 13.367188 9.609375 13.132812 9.679688 Z M 13.132812 9.679688 " fill-opacity="1" fill-rule="nonzero"/><path fill="#ff66c4" d="M 13.027344 10.277344 C 12.636719 10.210938 12.042969 10.191406 11.671875 10.347656 C 11.632812 10.367188 11.625 10.429688 11.671875 10.445312 C 11.695312 10.457031 11.71875 10.460938 11.742188 10.46875 C 11.710938 10.515625 11.679688 10.566406 11.648438 10.613281 C 11.589844 10.703125 11.523438 10.796875 11.496094 10.902344 C 11.492188 10.925781 11.519531 10.949219 11.542969 10.929688 C 11.613281 10.863281 11.664062 10.773438 11.714844 10.691406 C 11.757812 10.625 11.792969 10.554688 11.832031 10.484375 C 11.898438 10.492188 11.96875 10.496094 12.042969 10.492188 C 12.042969 10.496094 12.039062 10.496094 12.039062 10.496094 C 11.9375 10.628906 11.839844 10.757812 11.75 10.898438 C 11.679688 11.011719 11.59375 11.132812 11.578125 11.269531 C 11.574219 11.285156 11.597656 11.300781 11.613281 11.289062 C 11.710938 11.195312 11.765625 11.066406 11.832031 10.953125 C 11.917969 10.8125 12.003906 10.667969 12.089844 10.527344 C 12.097656 10.511719 12.09375 10.5 12.085938 10.492188 C 12.167969 10.488281 12.25 10.480469 12.335938 10.472656 C 12.117188 10.765625 11.855469 11.074219 11.714844 11.410156 C 11.578125 11.417969 11.570312 11.636719 11.707031 11.625 C 12.183594 11.589844 13.625 11.738281 13.691406 10.976562 C 13.722656 10.621094 13.324219 10.328125 13.027344 10.277344 Z M 11.835938 11.40625 C 12.042969 11.117188 12.246094 10.789062 12.394531 10.46875 C 12.453125 10.464844 12.511719 10.460938 12.570312 10.457031 C 12.457031 10.621094 12.347656 10.789062 12.238281 10.960938 C 12.152344 11.097656 12.050781 11.246094 11.996094 11.40625 C 11.933594 11.40625 11.878906 11.40625 11.835938 11.40625 Z M 12.132812 11.40625 C 12.207031 11.285156 12.269531 11.152344 12.339844 11.03125 C 12.449219 10.839844 12.5625 10.652344 12.652344 10.449219 C 12.734375 10.445312 12.816406 10.445312 12.898438 10.453125 C 12.738281 10.628906 12.609375 10.824219 12.488281 11.027344 C 12.417969 11.140625 12.335938 11.269531 12.285156 11.398438 C 12.234375 11.402344 12.183594 11.402344 12.132812 11.40625 Z M 13.109375 10.535156 C 12.964844 10.789062 12.726562 11.074219 12.695312 11.371094 C 12.601562 11.382812 12.511719 11.390625 12.421875 11.394531 C 12.476562 11.296875 12.527344 11.191406 12.582031 11.097656 C 12.699219 10.886719 12.828125 10.679688 12.941406 10.46875 C 12.941406 10.464844 12.941406 10.460938 12.941406 10.457031 C 13.117188 10.480469 13.265625 10.542969 13.367188 10.675781 C 13.304688 10.785156 13.238281 10.894531 13.171875 11 C 13.113281 11.097656 13.046875 11.207031 13.019531 11.320312 C 12.945312 11.335938 12.867188 11.351562 12.785156 11.363281 C 12.796875 11.347656 12.804688 11.335938 12.8125 11.320312 C 12.851562 11.242188 12.886719 11.164062 12.925781 11.085938 C 13.007812 10.914062 13.085938 10.738281 13.148438 10.558594 C 13.160156 10.535156 13.125 10.511719 13.109375 10.535156 Z M 13.132812 11.292969 C 13.183594 11.21875 13.222656 11.132812 13.261719 11.054688 C 13.316406 10.953125 13.363281 10.851562 13.414062 10.746094 C 13.445312 10.800781 13.46875 10.863281 13.484375 10.9375 C 13.523438 11.113281 13.367188 11.222656 13.132812 11.292969 Z M 13.132812 11.292969 " fill-opacity="1" fill-rule="nonzero"/><path fill="#ff66c4" d="M 13.027344 11.945312 C 12.636719 11.882812 12.042969 11.863281 11.671875 12.019531 C 11.632812 12.035156 11.625 12.101562 11.671875 12.117188 C 11.75 12.148438 11.839844 12.160156 11.9375 12.164062 C 11.902344 12.21875 11.867188 12.273438 11.832031 12.328125 C 11.773438 12.421875 11.714844 12.507812 11.671875 12.609375 C 11.664062 12.632812 11.6875 12.648438 11.707031 12.636719 C 11.84375 12.527344 11.957031 12.339844 12.019531 12.164062 C 12.078125 12.164062 12.140625 12.160156 12.203125 12.15625 C 12.128906 12.261719 12.054688 12.367188 11.984375 12.472656 C 11.882812 12.625 11.75 12.796875 11.722656 12.976562 C 11.71875 13 11.75 13.011719 11.765625 13 C 11.882812 12.886719 11.949219 12.722656 12.03125 12.585938 C 12.117188 12.441406 12.199219 12.296875 12.277344 12.148438 C 12.347656 12.144531 12.414062 12.136719 12.484375 12.132812 C 12.367188 12.28125 12.246094 12.429688 12.128906 12.582031 C 12.015625 12.726562 11.878906 12.894531 11.820312 13.078125 C 11.773438 13.078125 11.734375 13.078125 11.714844 13.078125 C 11.578125 13.085938 11.570312 13.304688 11.707031 13.296875 C 12.183594 13.261719 13.625 13.40625 13.691406 12.644531 C 13.722656 12.292969 13.324219 11.996094 13.027344 11.945312 Z M 12.324219 13.070312 C 12.386719 12.960938 12.441406 12.839844 12.503906 12.734375 C 12.617188 12.554688 12.742188 12.378906 12.855469 12.199219 C 12.875 12.164062 12.828125 12.136719 12.804688 12.164062 C 12.660156 12.351562 12.515625 12.535156 12.386719 12.730469 C 12.316406 12.832031 12.238281 12.949219 12.195312 13.074219 C 12.101562 13.074219 12.015625 13.078125 11.941406 13.078125 C 12.035156 12.9375 12.117188 12.785156 12.210938 12.648438 C 12.335938 12.476562 12.460938 12.308594 12.566406 12.125 C 12.757812 12.113281 12.945312 12.113281 13.101562 12.164062 C 13.015625 12.292969 12.929688 12.421875 12.847656 12.554688 C 12.75 12.714844 12.621094 12.878906 12.546875 13.054688 C 12.472656 13.0625 12.394531 13.066406 12.324219 13.070312 Z M 12.710938 13.039062 C 12.78125 12.933594 12.839844 12.808594 12.902344 12.699219 C 12.996094 12.53125 13.082031 12.359375 13.164062 12.1875 C 13.210938 12.207031 13.257812 12.234375 13.296875 12.269531 C 13.292969 12.269531 13.289062 12.273438 13.285156 12.277344 C 13.207031 12.390625 13.128906 12.503906 13.058594 12.625 C 12.992188 12.742188 12.894531 12.882812 12.855469 13.019531 C 12.808594 13.027344 12.757812 13.035156 12.710938 13.039062 Z M 13.097656 12.769531 C 13.175781 12.617188 13.257812 12.464844 13.34375 12.316406 C 13.378906 12.355469 13.40625 12.398438 13.433594 12.453125 C 13.363281 12.546875 13.300781 12.644531 13.238281 12.742188 C 13.183594 12.816406 13.128906 12.890625 13.085938 12.976562 C 13.054688 12.984375 13.019531 12.992188 12.984375 13 C 13.027344 12.921875 13.058594 12.839844 13.097656 12.769531 Z M 13.285156 12.90625 C 13.363281 12.789062 13.421875 12.648438 13.460938 12.527344 C 13.472656 12.554688 13.480469 12.578125 13.484375 12.609375 C 13.515625 12.742188 13.429688 12.835938 13.285156 12.90625 Z M 13.285156 12.90625 " fill-opacity="1" fill-rule="nonzero"/><path fill="#ff66c4" d="M 18.34375 8.050781 C 18.234375 8.042969 17.691406 8.0625 17.234375 7.996094 C 17.375 7.875 17.472656 7.695312 17.585938 7.550781 C 17.691406 7.414062 17.789062 7.273438 17.886719 7.128906 C 17.972656 7.136719 18.058594 7.136719 18.136719 7.132812 C 18.039062 7.253906 17.945312 7.375 17.847656 7.496094 C 17.757812 7.609375 17.570312 7.761719 17.542969 7.910156 C 17.539062 7.929688 17.5625 7.941406 17.574219 7.941406 C 17.722656 7.90625 17.84375 7.675781 17.929688 7.5625 C 18.035156 7.417969 18.136719 7.273438 18.234375 7.125 C 18.289062 7.117188 18.339844 7.105469 18.390625 7.089844 C 18.433594 7.070312 18.429688 7.007812 18.386719 6.988281 C 18.019531 6.835938 17.421875 6.851562 17.035156 6.917969 C 16.734375 6.96875 16.335938 7.261719 16.367188 7.617188 C 16.433594 8.378906 17.878906 8.234375 18.351562 8.269531 C 18.488281 8.277344 18.480469 8.058594 18.34375 8.050781 Z M 16.855469 7.175781 C 16.800781 7.238281 16.75 7.304688 16.699219 7.375 C 16.660156 7.425781 16.621094 7.480469 16.585938 7.535156 C 16.636719 7.355469 16.734375 7.242188 16.855469 7.175781 Z M 16.578125 7.695312 C 16.664062 7.609375 16.730469 7.496094 16.800781 7.398438 C 16.867188 7.304688 16.9375 7.214844 17.003906 7.121094 C 17.085938 7.101562 17.171875 7.09375 17.261719 7.089844 C 17.179688 7.183594 17.097656 7.277344 17.019531 7.371094 C 16.925781 7.488281 16.785156 7.609375 16.742188 7.753906 C 16.734375 7.777344 16.757812 7.796875 16.78125 7.785156 C 16.898438 7.722656 16.976562 7.585938 17.058594 7.480469 C 17.160156 7.351562 17.257812 7.222656 17.355469 7.089844 C 17.40625 7.09375 17.457031 7.09375 17.511719 7.097656 C 17.367188 7.253906 17.21875 7.40625 17.082031 7.570312 C 17.03125 7.636719 17.007812 7.675781 16.992188 7.757812 C 16.988281 7.785156 17.007812 7.804688 17.035156 7.796875 C 17.046875 7.789062 17.050781 7.769531 17.035156 7.765625 C 17.09375 7.78125 17.273438 7.507812 17.316406 7.457031 C 17.414062 7.34375 17.507812 7.226562 17.597656 7.105469 C 17.660156 7.109375 17.722656 7.117188 17.785156 7.121094 C 17.6875 7.242188 17.589844 7.363281 17.492188 7.484375 C 17.371094 7.632812 17.214844 7.796875 17.15625 7.984375 C 16.867188 7.9375 16.628906 7.847656 16.578125 7.695312 Z M 16.578125 7.695312 " fill-opacity="1" fill-rule="nonzero"/><path fill="#ff66c4" d="M 18.34375 9.796875 C 18.304688 9.792969 18.199219 9.792969 18.066406 9.792969 C 18.160156 9.695312 18.226562 9.5625 18.285156 9.445312 C 18.304688 9.414062 18.257812 9.382812 18.234375 9.414062 C 18.15625 9.539062 18.046875 9.65625 17.992188 9.792969 C 17.941406 9.792969 17.886719 9.792969 17.832031 9.789062 C 17.914062 9.691406 17.976562 9.566406 18.042969 9.457031 C 18.144531 9.292969 18.242188 9.121094 18.335938 8.953125 C 18.351562 8.921875 18.316406 8.894531 18.296875 8.921875 C 18.195312 9.070312 18.09375 9.214844 17.996094 9.363281 C 17.910156 9.492188 17.792969 9.632812 17.742188 9.785156 C 17.59375 9.78125 17.433594 9.769531 17.28125 9.75 C 17.40625 9.636719 17.496094 9.472656 17.589844 9.339844 C 17.691406 9.191406 17.78125 9.035156 17.855469 8.875 C 18.054688 8.886719 18.242188 8.890625 18.390625 8.835938 C 18.433594 8.816406 18.429688 8.753906 18.386719 8.734375 C 18.019531 8.582031 17.421875 8.597656 17.035156 8.664062 C 16.734375 8.714844 16.335938 9.007812 16.367188 9.363281 C 16.433594 10.125 17.878906 9.976562 18.351562 10.011719 C 18.488281 10.023438 18.480469 9.804688 18.34375 9.796875 Z M 16.574219 9.324219 C 16.625 9.09375 16.746094 8.96875 16.902344 8.902344 C 16.867188 8.953125 16.832031 9.007812 16.796875 9.058594 C 16.714844 9.171875 16.621094 9.289062 16.578125 9.421875 C 16.578125 9.425781 16.578125 9.433594 16.578125 9.4375 C 16.566406 9.402344 16.566406 9.367188 16.574219 9.324219 Z M 16.578125 9.4375 C 16.585938 9.453125 16.601562 9.460938 16.617188 9.449219 C 16.71875 9.359375 16.792969 9.234375 16.867188 9.121094 C 16.921875 9.035156 16.980469 8.953125 17.027344 8.859375 C 17.085938 8.847656 17.152344 8.839844 17.21875 8.835938 C 17.148438 8.921875 17.078125 9.003906 17.011719 9.09375 C 16.917969 9.21875 16.777344 9.359375 16.738281 9.515625 C 16.734375 9.539062 16.757812 9.566406 16.78125 9.554688 C 16.917969 9.46875 17.003906 9.289062 17.089844 9.160156 C 17.164062 9.050781 17.238281 8.941406 17.3125 8.835938 C 17.367188 8.835938 17.425781 8.839844 17.480469 8.84375 C 17.375 8.984375 17.265625 9.125 17.15625 9.265625 C 17.066406 9.394531 16.953125 9.519531 16.898438 9.671875 C 16.734375 9.617188 16.613281 9.542969 16.578125 9.4375 Z M 17 9.699219 C 17.113281 9.574219 17.199219 9.414062 17.296875 9.277344 C 17.398438 9.140625 17.488281 8.996094 17.570312 8.847656 C 17.644531 8.855469 17.714844 8.863281 17.785156 8.867188 C 17.695312 9.003906 17.601562 9.140625 17.503906 9.269531 C 17.394531 9.410156 17.257812 9.566406 17.207031 9.738281 C 17.132812 9.726562 17.0625 9.714844 17 9.699219 Z M 17 9.699219 " fill-opacity="1" fill-rule="nonzero"/><path fill="#ff66c4" d="M 18.34375 11.410156 C 18.289062 11.40625 18.113281 11.410156 17.898438 11.402344 C 17.96875 11.320312 18.019531 11.21875 18.070312 11.125 C 18.152344 10.976562 18.230469 10.828125 18.3125 10.683594 C 18.332031 10.640625 18.277344 10.609375 18.25 10.644531 C 18.152344 10.777344 18.0625 10.914062 17.972656 11.054688 C 17.902344 11.160156 17.824219 11.277344 17.78125 11.398438 C 17.726562 11.398438 17.675781 11.394531 17.621094 11.390625 C 17.699219 11.277344 17.757812 11.144531 17.832031 11.027344 C 17.941406 10.851562 18.058594 10.679688 18.144531 10.492188 C 18.234375 10.488281 18.316406 10.476562 18.390625 10.445312 C 18.433594 10.429688 18.429688 10.367188 18.386719 10.347656 C 18.019531 10.191406 17.421875 10.210938 17.035156 10.277344 C 16.734375 10.328125 16.335938 10.621094 16.367188 10.976562 C 16.433594 11.738281 17.878906 11.589844 18.351562 11.625 C 18.488281 11.636719 18.480469 11.417969 18.34375 11.410156 Z M 16.574219 10.9375 C 16.632812 10.675781 16.777344 10.546875 16.964844 10.488281 C 16.941406 10.53125 16.914062 10.570312 16.886719 10.609375 C 16.800781 10.738281 16.703125 10.871094 16.636719 11.015625 C 16.628906 11.035156 16.652344 11.054688 16.667969 11.039062 C 16.824219 10.902344 16.996094 10.675781 17.074219 10.464844 C 17.148438 10.453125 17.222656 10.449219 17.300781 10.449219 C 17.203125 10.5625 17.101562 10.683594 17.011719 10.804688 C 16.921875 10.933594 16.804688 11.074219 16.757812 11.226562 C 16.621094 11.160156 16.546875 11.066406 16.574219 10.9375 Z M 16.847656 11.265625 C 16.957031 11.132812 17.035156 10.957031 17.132812 10.816406 C 17.21875 10.695312 17.304688 10.574219 17.386719 10.449219 C 17.445312 10.453125 17.5 10.457031 17.558594 10.460938 C 17.453125 10.601562 17.347656 10.746094 17.246094 10.890625 C 17.15625 11.019531 17.027344 11.152344 16.976562 11.304688 C 16.929688 11.292969 16.886719 11.28125 16.847656 11.265625 Z M 17.082031 11.328125 C 17.203125 11.210938 17.289062 11.035156 17.378906 10.898438 C 17.472656 10.757812 17.5625 10.617188 17.636719 10.46875 C 17.699219 10.472656 17.761719 10.480469 17.820312 10.484375 C 17.726562 10.621094 17.628906 10.753906 17.539062 10.894531 C 17.4375 11.042969 17.308594 11.191406 17.230469 11.355469 C 17.179688 11.347656 17.128906 11.339844 17.082031 11.328125 Z M 17.339844 11.367188 C 17.433594 11.265625 17.503906 11.136719 17.578125 11.023438 C 17.691406 10.847656 17.796875 10.667969 17.902344 10.488281 C 17.964844 10.492188 18.027344 10.496094 18.085938 10.492188 C 17.960938 10.636719 17.851562 10.796875 17.746094 10.957031 C 17.660156 11.089844 17.554688 11.230469 17.507812 11.386719 C 17.453125 11.378906 17.394531 11.375 17.339844 11.367188 Z M 17.339844 11.367188 " fill-opacity="1" fill-rule="nonzero"/><path fill="#ff66c4" d="M 18.34375 13.078125 C 18.277344 13.074219 18.035156 13.082031 17.753906 13.070312 C 17.828125 13.003906 17.875 12.914062 17.933594 12.835938 C 18.015625 12.714844 18.097656 12.589844 18.183594 12.464844 C 18.210938 12.429688 18.148438 12.386719 18.121094 12.417969 C 18.035156 12.519531 17.945312 12.625 17.867188 12.734375 C 17.792969 12.832031 17.695312 12.9375 17.671875 13.066406 C 17.640625 13.0625 17.613281 13.0625 17.582031 13.058594 C 17.707031 12.9375 17.792969 12.75 17.886719 12.605469 C 17.980469 12.460938 18.0625 12.3125 18.144531 12.164062 C 18.234375 12.15625 18.316406 12.144531 18.390625 12.117188 C 18.433594 12.101562 18.429688 12.035156 18.386719 12.019531 C 18.132812 11.910156 17.769531 11.886719 17.445312 11.902344 C 17.453125 11.878906 17.417969 11.863281 17.402344 11.882812 L 17.386719 11.90625 C 17.257812 11.914062 17.136719 11.929688 17.035156 11.945312 C 16.734375 11.996094 16.335938 12.292969 16.367188 12.644531 C 16.433594 13.40625 17.878906 13.261719 18.351562 13.296875 C 18.488281 13.304688 18.480469 13.085938 18.34375 13.078125 Z M 16.574219 12.609375 C 16.628906 12.363281 16.757812 12.238281 16.925781 12.171875 C 16.882812 12.238281 16.839844 12.300781 16.796875 12.367188 C 16.722656 12.480469 16.632812 12.59375 16.578125 12.722656 C 16.566406 12.6875 16.566406 12.648438 16.574219 12.609375 Z M 16.605469 12.777344 C 16.730469 12.671875 16.820312 12.519531 16.910156 12.386719 C 16.964844 12.308594 17.015625 12.226562 17.054688 12.136719 C 17.113281 12.128906 17.171875 12.121094 17.234375 12.121094 C 17.164062 12.214844 17.097656 12.308594 17.027344 12.40625 C 16.917969 12.558594 16.800781 12.707031 16.726562 12.882812 C 16.675781 12.851562 16.632812 12.816406 16.605469 12.777344 Z M 16.800781 12.917969 C 16.929688 12.757812 17.035156 12.578125 17.15625 12.414062 C 17.222656 12.320312 17.285156 12.222656 17.34375 12.117188 C 17.398438 12.121094 17.453125 12.125 17.507812 12.128906 C 17.421875 12.246094 17.332031 12.363281 17.246094 12.484375 C 17.144531 12.625 17.011719 12.796875 16.972656 12.972656 C 16.910156 12.957031 16.851562 12.9375 16.800781 12.917969 Z M 17.066406 12.996094 C 17.171875 12.863281 17.246094 12.695312 17.339844 12.554688 C 17.429688 12.417969 17.515625 12.277344 17.59375 12.132812 C 17.652344 12.140625 17.710938 12.144531 17.769531 12.148438 C 17.707031 12.238281 17.648438 12.328125 17.585938 12.421875 C 17.480469 12.574219 17.351562 12.730469 17.300781 12.914062 C 17.285156 12.964844 17.351562 12.984375 17.382812 12.953125 C 17.496094 12.839844 17.566406 12.683594 17.652344 12.550781 C 17.730469 12.421875 17.808594 12.289062 17.878906 12.15625 C 17.933594 12.160156 17.988281 12.164062 18.039062 12.164062 C 17.945312 12.308594 17.847656 12.453125 17.75 12.597656 C 17.652344 12.738281 17.523438 12.882812 17.484375 13.054688 C 17.34375 13.039062 17.199219 13.023438 17.066406 12.996094 Z M 17.066406 12.996094 " fill-opacity="1" fill-rule="nonzero"/><path fill="#ff66c4" d="M 17.433594 5.03125 C 17.351562 5.148438 17.289062 5.277344 17.199219 5.390625 C 17.089844 5.53125 16.964844 5.660156 16.84375 5.792969 C 16.828125 5.8125 16.855469 5.832031 16.875 5.824219 C 17.128906 5.65625 17.445312 5.375 17.488281 5.046875 C 17.492188 5.019531 17.449219 5.011719 17.433594 5.03125 Z M 17.433594 5.03125 " fill-opacity="1" fill-rule="nonzero"/><path fill="#ff66c4" d="M 17.691406 5.316406 C 17.574219 5.417969 17.472656 5.53125 17.355469 5.632812 C 17.257812 5.714844 17.128906 5.777344 17.046875 5.878906 C 17.027344 5.898438 17.039062 5.941406 17.074219 5.929688 C 17.214844 5.894531 17.339844 5.78125 17.449219 5.6875 C 17.558594 5.589844 17.664062 5.476562 17.71875 5.339844 C 17.726562 5.324219 17.703125 5.304688 17.691406 5.316406 Z M 17.691406 5.316406 " fill-opacity="1" fill-rule="nonzero"/><path fill="#ff66c4" d="M 17.925781 5.597656 C 17.683594 5.789062 17.414062 5.929688 17.167969 6.113281 C 17.152344 6.125 17.164062 6.15625 17.183594 6.148438 C 17.480469 6.070312 17.75 5.859375 17.960938 5.636719 C 17.984375 5.613281 17.953125 5.578125 17.925781 5.597656 Z M 17.925781 5.597656 " fill-opacity="1" fill-rule="nonzero"/><path fill="#ff66c4" d="M 18.078125 5.910156 C 17.941406 5.984375 17.800781 6.058594 17.660156 6.121094 C 17.542969 6.171875 17.417969 6.199219 17.3125 6.269531 C 17.28125 6.289062 17.292969 6.335938 17.328125 6.335938 C 17.601562 6.339844 17.925781 6.152344 18.117188 5.964844 C 18.144531 5.9375 18.109375 5.890625 18.078125 5.910156 Z M 18.078125 5.910156 " fill-opacity="1" fill-rule="nonzero"/><path fill="#ff66c4" d="M 18.28125 6.324219 C 17.996094 6.332031 17.648438 6.378906 17.375 6.476562 C 17.34375 6.488281 17.347656 6.539062 17.382812 6.539062 C 17.671875 6.5625 18.015625 6.484375 18.289062 6.386719 C 18.320312 6.375 18.320312 6.324219 18.28125 6.324219 Z M 18.28125 6.324219 " fill-opacity="1" fill-rule="nonzero"/><path fill="#ff66c4" d="M 12.878906 5.503906 C 12.832031 5.402344 12.753906 5.3125 12.703125 5.214844 C 12.65625 5.128906 12.632812 5.03125 12.585938 4.949219 C 12.5625 4.914062 12.507812 4.933594 12.511719 4.972656 C 12.515625 5.164062 12.652344 5.464844 12.832031 5.550781 C 12.863281 5.566406 12.890625 5.539062 12.878906 5.503906 Z M 12.878906 5.503906 " fill-opacity="1" fill-rule="nonzero"/><path fill="#ff66c4" d="M 12.75 5.808594 C 12.703125 5.695312 12.59375 5.613281 12.515625 5.523438 C 12.4375 5.425781 12.355469 5.316406 12.292969 5.207031 C 12.277344 5.1875 12.238281 5.195312 12.246094 5.222656 C 12.285156 5.347656 12.328125 5.453125 12.402344 5.5625 C 12.480469 5.675781 12.578125 5.8125 12.710938 5.859375 C 12.742188 5.871094 12.757812 5.832031 12.75 5.808594 Z M 12.75 5.808594 " fill-opacity="1" fill-rule="nonzero"/><path fill="#ff66c4" d="M 12.546875 5.992188 C 12.457031 5.921875 12.355469 5.875 12.257812 5.820312 C 12.128906 5.75 12.019531 5.636719 11.886719 5.574219 C 11.867188 5.5625 11.847656 5.589844 11.855469 5.609375 C 11.964844 5.824219 12.285156 6.050781 12.53125 6.042969 C 12.558594 6.042969 12.570312 6.007812 12.546875 5.992188 Z M 12.546875 5.992188 " fill-opacity="1" fill-rule="nonzero"/><path fill="#ff66c4" d="M 12.652344 6.273438 C 12.507812 6.222656 12.363281 6.203125 12.214844 6.164062 C 12.050781 6.121094 11.90625 6.042969 11.757812 5.96875 C 11.730469 5.957031 11.710938 5.996094 11.726562 6.015625 C 11.929688 6.269531 12.339844 6.390625 12.648438 6.328125 C 12.675781 6.320312 12.679688 6.28125 12.652344 6.273438 Z M 12.652344 6.273438 " fill-opacity="1" fill-rule="nonzero"/><path fill="#ff66c4" d="M 12.558594 6.507812 C 12.421875 6.472656 12.269531 6.484375 12.128906 6.46875 C 11.988281 6.457031 11.851562 6.425781 11.710938 6.402344 C 11.683594 6.398438 11.667969 6.445312 11.695312 6.457031 C 11.929688 6.585938 12.304688 6.683594 12.558594 6.582031 C 12.59375 6.570312 12.597656 6.519531 12.558594 6.507812 Z M 12.558594 6.507812 " fill-opacity="1" fill-rule="nonzero"/><path fill="#ff66c4" d="M 12.253906 6.683594 C 12.136719 6.679688 12.019531 6.707031 11.90625 6.71875 C 11.789062 6.730469 11.675781 6.726562 11.558594 6.730469 C 11.511719 6.730469 11.503906 6.808594 11.550781 6.816406 C 11.773438 6.855469 12.066406 6.855469 12.269531 6.746094 C 12.296875 6.730469 12.285156 6.683594 12.253906 6.683594 Z M 12.253906 6.683594 " fill-opacity="1" fill-rule="nonzero"/><path fill="#ff66c4" d="M 18.472656 7.042969 C 18.332031 7.179688 18.203125 7.324219 18.082031 7.476562 C 17.980469 7.605469 17.832031 7.761719 17.804688 7.929688 C 17.800781 7.957031 17.832031 7.964844 17.851562 7.953125 C 17.980469 7.859375 18.0625 7.671875 18.15625 7.539062 C 18.261719 7.378906 18.378906 7.222656 18.5 7.070312 C 18.515625 7.054688 18.488281 7.027344 18.472656 7.042969 Z M 18.472656 7.042969 " fill-opacity="1" fill-rule="nonzero"/><path fill="#ff66c4" d="M 18.324219 7.496094 C 18.257812 7.585938 18.191406 7.667969 18.125 7.757812 C 18.070312 7.835938 18.003906 7.90625 17.992188 8.003906 C 17.992188 8.023438 18.011719 8.039062 18.027344 8.03125 C 18.121094 7.980469 18.167969 7.878906 18.226562 7.792969 C 18.28125 7.707031 18.332031 7.621094 18.382812 7.53125 C 18.40625 7.492188 18.351562 7.460938 18.324219 7.496094 Z M 18.324219 7.496094 " fill-opacity="1" fill-rule="nonzero"/><path fill="#ff66c4" d="M 13.980469 4.285156 C 13.976562 4.285156 13.976562 4.289062 13.972656 4.292969 C 13.972656 4.273438 13.96875 4.253906 13.96875 4.238281 C 13.960938 4.164062 13.859375 4.09375 13.828125 4.191406 C 13.8125 4.253906 13.839844 4.3125 13.847656 4.375 C 13.847656 4.386719 13.847656 4.402344 13.851562 4.417969 C 13.734375 4.539062 13.617188 4.65625 13.507812 4.777344 C 13.371094 4.925781 13.191406 5.089844 13.132812 5.289062 C 13.128906 5.289062 13.132812 5.289062 13.132812 5.292969 C 13.101562 5.207031 13.078125 5.121094 13.0625 5.042969 C 13.339844 4.804688 13.578125 4.5 13.816406 4.234375 C 13.839844 4.207031 13.808594 4.167969 13.785156 4.191406 C 13.785156 4.191406 13.78125 4.191406 13.78125 4.191406 C 13.765625 4.195312 13.753906 4.203125 13.746094 4.222656 C 13.742188 4.226562 13.742188 4.230469 13.742188 4.234375 C 13.515625 4.464844 13.253906 4.691406 13.050781 4.949219 C 13.03125 4.792969 13.039062 4.632812 13.042969 4.476562 C 13.042969 4.421875 12.96875 4.421875 12.957031 4.46875 C 12.859375 4.828125 12.910156 5.472656 13.234375 5.75 C 13.230469 5.765625 13.222656 5.78125 13.214844 5.796875 C 13.210938 5.816406 13.230469 5.839844 13.25 5.828125 C 13.269531 5.820312 13.28125 5.808594 13.296875 5.796875 C 13.339844 5.824219 13.378906 5.84375 13.425781 5.859375 C 14.027344 6.046875 13.988281 5.003906 13.988281 4.6875 C 13.988281 4.566406 13.984375 4.441406 13.972656 4.316406 C 13.980469 4.308594 13.988281 4.300781 13.992188 4.292969 C 14 4.285156 13.988281 4.277344 13.980469 4.285156 Z M 13.191406 5.429688 C 13.171875 5.390625 13.152344 5.347656 13.136719 5.304688 C 13.140625 5.3125 13.148438 5.316406 13.15625 5.308594 C 13.328125 5.164062 13.453125 4.945312 13.601562 4.777344 C 13.6875 4.675781 13.773438 4.574219 13.855469 4.46875 C 13.859375 4.519531 13.867188 4.570312 13.871094 4.621094 C 13.871094 4.640625 13.871094 4.65625 13.871094 4.671875 C 13.742188 4.804688 13.609375 4.933594 13.484375 5.070312 C 13.390625 5.171875 13.253906 5.292969 13.191406 5.429688 Z M 13.25 5.523438 C 13.363281 5.417969 13.453125 5.246094 13.550781 5.132812 C 13.660156 5.007812 13.769531 4.882812 13.878906 4.757812 C 13.878906 4.851562 13.878906 4.949219 13.867188 5.042969 C 13.742188 5.171875 13.617188 5.296875 13.496094 5.429688 C 13.441406 5.488281 13.382812 5.546875 13.328125 5.613281 C 13.296875 5.585938 13.273438 5.554688 13.25 5.523438 Z M 13.425781 5.679688 C 13.421875 5.675781 13.421875 5.675781 13.417969 5.675781 C 13.46875 5.613281 13.519531 5.550781 13.566406 5.492188 C 13.664062 5.386719 13.757812 5.277344 13.851562 5.167969 C 13.84375 5.210938 13.835938 5.253906 13.824219 5.292969 C 13.816406 5.324219 13.808594 5.355469 13.796875 5.390625 C 13.703125 5.488281 13.605469 5.589844 13.527344 5.699219 C 13.496094 5.703125 13.460938 5.695312 13.425781 5.679688 Z M 13.425781 5.679688 " fill-opacity="1" fill-rule="nonzero"/><path fill="#ff66c4" d="M 18.085938 8.902344 C 17.976562 9.046875 17.863281 9.1875 17.757812 9.335938 C 17.675781 9.457031 17.566406 9.582031 17.53125 9.726562 C 17.523438 9.75 17.546875 9.765625 17.566406 9.753906 C 17.683594 9.664062 17.753906 9.523438 17.835938 9.402344 C 17.941406 9.25 18.039062 9.089844 18.136719 8.933594 C 18.15625 8.902344 18.109375 8.875 18.085938 8.902344 Z M 18.085938 8.902344 " fill-opacity="1" fill-rule="nonzero"/><path fill="#ff66c4" d="M 13.828125 15.566406 C 13.753906 15.625 13.695312 15.707031 13.636719 15.78125 C 13.59375 15.835938 13.5 15.917969 13.503906 15.996094 C 13.507812 16.015625 13.523438 16.035156 13.546875 16.027344 C 13.617188 16.011719 13.652344 15.921875 13.6875 15.863281 C 13.746094 15.777344 13.816406 15.683594 13.851562 15.585938 C 13.859375 15.570312 13.839844 15.554688 13.828125 15.566406 Z M 13.828125 15.566406 " fill-opacity="1" fill-rule="nonzero"/><path fill="#ff66c4" d="M 12.675781 13.371094 C 12.386719 13.386719 12.0625 13.441406 11.78125 13.523438 C 11.757812 13.53125 11.753906 13.570312 11.78125 13.570312 C 12.074219 13.578125 12.417969 13.539062 12.691406 13.417969 C 12.71875 13.40625 12.703125 13.371094 12.675781 13.371094 Z M 12.675781 13.371094 " fill-opacity="1" fill-rule="nonzero"/><path fill="#ff66c4" d="M 12.691406 13.554688 C 12.550781 13.589844 12.421875 13.671875 12.285156 13.71875 C 12.164062 13.765625 12.027344 13.765625 11.910156 13.816406 C 11.890625 13.820312 11.894531 13.84375 11.910156 13.851562 C 12.125 13.96875 12.574219 13.777344 12.722656 13.609375 C 12.742188 13.585938 12.726562 13.546875 12.691406 13.554688 Z M 12.691406 13.554688 " fill-opacity="1" fill-rule="nonzero"/><path fill="#ff66c4" d="M 12.707031 13.792969 C 12.597656 13.84375 12.496094 13.902344 12.390625 13.964844 C 12.265625 14.042969 12.128906 14.101562 12.007812 14.191406 C 11.984375 14.210938 12.007812 14.242188 12.035156 14.238281 C 12.285156 14.207031 12.554688 14.007812 12.734375 13.832031 C 12.75 13.8125 12.734375 13.78125 12.707031 13.792969 Z M 12.707031 13.792969 " fill-opacity="1" fill-rule="nonzero"/><path fill="#ff66c4" d="M 12.753906 13.90625 C 12.640625 13.988281 12.542969 14.089844 12.441406 14.1875 C 12.324219 14.296875 12.195312 14.390625 12.097656 14.519531 C 12.078125 14.542969 12.109375 14.574219 12.132812 14.5625 C 12.257812 14.492188 12.363281 14.398438 12.46875 14.304688 C 12.589844 14.195312 12.714844 14.085938 12.796875 13.941406 C 12.816406 13.914062 12.78125 13.886719 12.753906 13.90625 Z M 12.753906 13.90625 " fill-opacity="1" fill-rule="nonzero"/><path fill="#ff66c4" d="M 12.734375 14.140625 C 12.652344 14.246094 12.582031 14.359375 12.511719 14.472656 C 12.433594 14.589844 12.347656 14.710938 12.296875 14.839844 C 12.28125 14.875 12.320312 14.914062 12.351562 14.882812 C 12.53125 14.691406 12.679688 14.40625 12.777344 14.164062 C 12.789062 14.136719 12.753906 14.121094 12.734375 14.140625 Z M 12.734375 14.140625 " fill-opacity="1" fill-rule="nonzero"/><path fill="#ff66c4" d="M 12.8125 14.445312 C 12.691406 14.636719 12.589844 14.894531 12.554688 15.121094 C 12.550781 15.136719 12.570312 15.144531 12.582031 15.132812 C 12.722656 14.953125 12.804688 14.6875 12.851562 14.464844 C 12.859375 14.441406 12.824219 14.421875 12.8125 14.445312 Z M 12.8125 14.445312 " fill-opacity="1" fill-rule="nonzero"/><path fill="#ff66c4" d="M 16.972656 14.195312 C 16.949219 14.175781 16.917969 14.203125 16.9375 14.226562 C 17.011719 14.34375 17.085938 14.464844 17.15625 14.585938 C 17.234375 14.71875 17.269531 14.886719 17.363281 15.007812 C 17.378906 15.023438 17.40625 15.011719 17.410156 14.992188 C 17.4375 14.710938 17.15625 14.378906 16.972656 14.195312 Z M 16.972656 14.195312 " fill-opacity="1" fill-rule="nonzero"/><path fill="#ff66c4" d="M 17.554688 14.285156 C 17.4375 14.183594 17.308594 14.097656 17.175781 14.015625 C 17.148438 14 17.113281 14.039062 17.136719 14.0625 C 17.242188 14.160156 17.351562 14.25 17.453125 14.347656 C 17.550781 14.4375 17.640625 14.585938 17.757812 14.640625 C 17.785156 14.652344 17.8125 14.632812 17.808594 14.601562 C 17.785156 14.472656 17.648438 14.371094 17.554688 14.285156 Z M 17.554688 14.285156 " fill-opacity="1" fill-rule="nonzero"/><path fill="#ff66c4" d="M 17.980469 14.164062 C 17.9375 14.042969 17.78125 13.988281 17.675781 13.9375 C 17.550781 13.878906 17.410156 13.824219 17.269531 13.832031 C 17.253906 13.835938 17.25 13.855469 17.261719 13.867188 C 17.363281 13.9375 17.484375 13.980469 17.59375 14.035156 C 17.703125 14.085938 17.824219 14.203125 17.945312 14.210938 C 17.964844 14.210938 17.984375 14.1875 17.980469 14.164062 Z M 17.980469 14.164062 " fill-opacity="1" fill-rule="nonzero"/><path fill="#ff66c4" d="M 18.226562 13.734375 C 18.136719 13.652344 18.007812 13.644531 17.890625 13.625 C 17.746094 13.597656 17.597656 13.597656 17.453125 13.613281 C 17.417969 13.617188 17.429688 13.667969 17.457031 13.671875 C 17.578125 13.6875 17.703125 13.703125 17.824219 13.726562 C 17.953125 13.75 18.085938 13.804688 18.210938 13.789062 C 18.234375 13.785156 18.246094 13.75 18.226562 13.734375 Z M 18.226562 13.734375 " fill-opacity="1" fill-rule="nonzero"/><path fill="#ff66c4" d="M 18.261719 13.402344 C 18.152344 13.34375 18.027344 13.363281 17.910156 13.367188 C 17.777344 13.367188 17.636719 13.367188 17.507812 13.40625 C 17.480469 13.414062 17.476562 13.453125 17.507812 13.460938 C 17.632812 13.5 17.773438 13.5 17.902344 13.5 C 18.023438 13.503906 18.152344 13.523438 18.261719 13.464844 C 18.285156 13.453125 18.285156 13.414062 18.261719 13.402344 Z M 18.261719 13.402344 " fill-opacity="1" fill-rule="nonzero"/></svg>