<svg xmlns="http://www.w3.org/2000/svg" xmlns:xlink="http://www.w3.org/1999/xlink" width="24" zoomAndPan="magnify" viewBox="0 0 30 30.000001" height="24" preserveAspectRatio="xMidYMid meet" version="1.0"><defs><clipPath id="id1"><path d="M 13.0625 12 L 16.691406 12 L 16.691406 17 L 13.0625 17 Z M 13.0625 12 " clip-rule="nonzero"/></clipPath><clipPath id="id2"><path d="M 13.0625 5.804688 L 16.691406 5.804688 L 16.691406 10 L 13.0625 10 Z M 13.0625 5.804688 " clip-rule="nonzero"/></clipPath><clipPath id="id3"><path d="M 13.0625 19 L 16.691406 19 L 16.691406 23.226562 L 13.0625 23.226562 Z M 13.0625 19 " clip-rule="nonzero"/></clipPath></defs><g clip-path="url(#id1)"><path stroke-linecap="round" transform="matrix(0.907258, 0, 0, 0.966797, 3.989516, 2.914568)" fill="none" stroke-linejoin="round" d="M 13.001417 11.999477 C 13.001417 12.274224 12.90239 12.512608 12.70864 12.706547 C 12.510584 12.900487 12.278084 13.001497 11.998223 13.001497 C 11.722667 13.001497 11.490167 12.900487 11.292112 12.706547 C 11.098362 12.512608 10.999334 12.274224 10.999334 11.999477 C 10.999334 11.724729 11.098362 11.486345 11.292112 11.292406 C 11.490167 11.098467 11.722667 11.001497 11.998223 11.001497 C 12.278084 11.001497 12.510584 11.098467 12.70864 11.292406 C 12.90239 11.486345 13.001417 11.724729 13.001417 11.999477 Z M 13.001417 11.999477 " stroke="#000000" stroke-width="2" stroke-opacity="1" stroke-miterlimit="4"/></g><g clip-path="url(#id2)"><path stroke-linecap="round" transform="matrix(0.907258, 0, 0, 0.966797, 3.989516, 2.914568)" fill="none" stroke-linejoin="round" d="M 13.001417 5.001497 C 13.001417 5.276244 12.90239 5.510588 12.70864 5.708568 C 12.510584 5.902507 12.278084 5.999477 11.998223 5.999477 C 11.722667 5.999477 11.490167 5.902507 11.292112 5.708568 C 11.098362 5.510588 10.999334 5.276244 10.999334 5.001497 C 10.999334 4.722709 11.098362 4.488366 11.292112 4.294426 C 11.490167 4.096446 11.722667 3.999477 11.998223 3.999477 C 12.278084 3.999477 12.510584 4.096446 12.70864 4.294426 C 12.90239 4.488366 13.001417 4.722709 13.001417 5.001497 Z M 13.001417 5.001497 " stroke="#000000" stroke-width="2" stroke-opacity="1" stroke-miterlimit="4"/></g><g clip-path="url(#id3)"><path stroke-linecap="round" transform="matrix(0.907258, 0, 0, 0.966797, 3.989516, 2.914568)" fill="none" stroke-linejoin="round" d="M 13.001417 19.001497 C 13.001417 19.276244 12.90239 19.510588 12.70864 19.708568 C 12.510584 19.902507 12.278084 19.999477 11.998223 19.999477 C 11.722667 19.999477 11.490167 19.902507 11.292112 19.708568 C 11.098362 19.510588 10.999334 19.276244 10.999334 19.001497 C 10.999334 18.722709 11.098362 18.488366 11.292112 18.294426 C 11.490167 18.096446 11.722667 17.999477 11.998223 17.999477 C 12.278084 17.999477 12.510584 18.096446 12.70864 18.294426 C 12.90239 18.488366 13.001417 18.722709 13.001417 19.001497 Z M 13.001417 19.001497 " stroke="#000000" stroke-width="2" stroke-opacity="1" stroke-miterlimit="4"/></g></svg>
